<svg xmlns="http://www.w3.org/2000/svg" viewBox="0 0 256 257">
  <defs>
    <linearGradient id="vitea" x1=".16" x2=".85" y1=".12" y2=".89">
      <stop offset="0" stop-color="#41D1FF" />
      <stop offset="1" stop-color="#BD34FE" />
    </linearGradient>
    <linearGradient id="viteb" x1=".28" x2=".72" y1=".04" y2=".96">
      <stop offset="0" stop-color="#FFEA83" />
      <stop offset=".08" stop-color="#FFDD35" />
      <stop offset="1" stop-color="#FFA800" />
    </linearGradient>
  </defs>
  <path
    fill="url(#vitea)"
    d="m255.15 37.93-120.18 216.1c-2.3 4.07-8.2 4.12-10.56.09L.88 37.9c-2.53-4.24 1.06-9.52 5.86-8.74l120.06 19.65a6.1 6.1 0 0 0 2.02 0l119.46-19.57c4.77-.78 8.38 4.45 5.88 8.7Z"
  />
  <path
    fill="url(#viteb)"
    d="M185.43.06 96.44 17.72a3.06 3.06 0 0 0-2.47 3.04l2.7 92.74c.08 2.8 3.18 4.56 5.73 3.25l25.48-13.06c2.67-1.37 5.85.8 5.33 3.73l-7.5 42.43c-.55 3.13 2.95 5.38 5.65 3.7l15.76-9.67a4.88 4.88 0 0 1 7.3 3.48l4.7 34.79c.46 3.42 5.2 3.76 6.2.47l1.35-4.44 23.8-142.66c.52-3.1-2.2-5.7-5.3-5.05l-26.33 5.66c-3.24.7-6.14-2.37-5.12-5.54l8.14-25.25c1-3.1-1.82-6.14-4.98-5.39Z"
  />
</svg>
