<svg width="637" height="707" viewBox="0 0 637 707" fill="none" xmlns="http://www.w3.org/2000/svg">
<path d="M77.8881 252.149C76.7186 252.149 23.7688 203.565 18.5588 191.024C13.3489 178.377 25.0447 162.147 25.0447 162.147L11.3286 148.868L101.599 118.094C101.599 118.094 119.674 118.41 124.671 117.146C129.775 115.776 144.873 105.764 159.121 98.8079C173.262 91.9575 206.648 79.7324 206.648 79.7324L213.24 69.5096H218.131L219.407 62.9755C219.407 62.9755 216.324 63.2916 215.048 57.3898C211.964 45.3755 216.217 2.06043 258.854 0.0580332C301.596 -1.94436 302.022 48.5371 302.022 48.5371C302.022 48.5371 313.399 51.0665 318.502 53.8066C323.606 56.4413 322.542 57.3898 319.778 58.9707C315.525 60.9731 295.855 60.3407 295.855 60.3407C295.855 60.3407 299.364 67.6126 299.045 68.7719C298.726 69.9312 293.303 71.7228 293.303 71.7228V78.8893L288.2 81.3132C288.2 81.3132 291.708 83.5264 291.815 84.8965C291.815 86.3719 289.263 87.5312 289.263 87.5312C289.263 87.5312 288.944 92.9061 287.88 94.4869C286.179 97.0162 266.19 97.6486 266.19 97.6486L253.963 121.888C253.963 121.888 257.046 133.27 265.552 137.802C270.018 140.331 280.119 145.812 288.838 150.449H289.794C343.382 131.479 406.646 111.982 427.698 106.291C463.423 96.2785 515.204 114.827 525.73 111.982C536.256 109.241 563.582 111.455 563.582 111.455L599.201 87.4258L595.16 101.864L614.724 99.0186C614.724 99.0186 576.341 126.314 580.594 133.692C584.953 141.069 595.692 171.737 603.666 187.019C611.747 202.511 637.265 294.305 636.308 303.263C635.351 312.327 622.699 331.929 620.572 333.405C618.339 334.985 609.727 336.882 603.879 335.618C598.031 334.353 582.189 323.287 581.551 322.233C581.019 321.074 581.551 311.694 580.381 309.797C578.786 306.952 568.685 282.185 538.702 269.539C508.612 256.786 496.81 227.488 491.174 224.432C485.433 221.376 462.573 214.42 448.219 221.797C433.759 229.069 393.887 283.45 393.887 283.45C393.887 283.45 392.823 300.312 390.803 308.216C388.145 318.545 382.829 351.321 386.444 350.899C390.059 350.688 436.204 347.105 446.943 348.37C455.13 349.318 461.616 354.904 464.274 358.909C466.401 362.07 472.461 382.938 467.995 387.469C463.211 392.633 416.428 469.884 412.813 471.992C409.198 474.205 334.345 476.629 332.643 476.418C330.942 476.207 319.672 479.369 318.928 465.141C318.183 450.914 349.337 435.527 355.929 436.159C362.627 436.792 369.645 446.277 378.47 445.433C387.401 444.59 427.486 391.369 422.595 390.104C417.704 388.734 379.32 416.135 374.855 418.981C370.283 421.721 364.966 418.665 354.972 424.988C344.871 431.311 313.611 447.225 313.611 447.225L286.286 462.401C286.286 462.401 257.684 477.472 243.33 482.741C228.976 488.222 192.507 502.765 155.612 507.192C130.945 510.248 -2.06833 506.349 -15.2527 506.981C-28.5433 507.508 -44.173 513.304 -48.2134 527.321C-52.2538 541.443 -71.8177 609.419 -83.5134 619.431C-95.2092 629.443 -172.189 693.836 -180.482 701.846C-188.775 709.75 -214.081 734.095 -217.802 746.425C-221.417 758.651 -208.233 846.335 -208.233 852.974C-208.233 859.614 -230.455 903.983 -233.751 907.882C-237.153 911.781 -268.307 934.44 -270.433 933.913C-272.56 933.492 -276.919 892.811 -276.281 891.02C-275.643 889.123 -252.677 873.841 -254.697 871.101C-256.717 868.361 -267.35 871.101 -249.168 853.185C-230.88 835.585 -267.137 701.108 -267.775 694.574C-268.307 688.04 -233.113 666.962 -217.164 656.528C-201.215 646.095 -196.431 620.591 -199.302 610.157C-201.96 599.618 -235.771 542.602 -244.383 514.674C-253.102 486.957 -226.946 425.409 -226.946 425.409C-226.946 425.409 -233.113 423.513 -239.705 424.145C-246.297 424.672 -271.922 439.005 -287.233 462.507C-302.437 486.008 -289.678 545.764 -289.678 545.764C-289.678 545.764 -282.023 592.873 -283.192 602.464C-284.255 612.159 -286.063 616.48 -289.465 623.858C-292.655 631.024 -295.101 634.291 -297.121 635.977C-297.652 560.94 -314.027 529.956 -313.814 531.431C-313.07 539.125 -300.098 606.258 -303.288 638.085C-307.434 679.292 -351.559 694.679 -349.22 690.464C-339.863 673.812 -336.567 652.418 -336.567 652.418C-336.567 652.418 -336.248 650.31 -336.993 651.997C-339.225 657.055 -341.777 661.798 -344.967 666.54C-381.756 718.497 -450.761 669.28 -430.772 669.702C-410.889 670.334 -386.859 636.504 -378.672 616.48C-371.867 600.356 -371.867 592.03 -378.991 554.511C-386.115 517.731 -383.138 503.714 -371.548 473.889C-359.853 444.169 -319.555 418.981 -294.569 409.39C-269.583 400.011 -196.537 395.584 -196.537 395.584C-196.537 395.584 -163.47 376.509 -150.817 370.502C-138.165 364.6 -116.368 359.541 -101.589 357.012C-86.8095 354.482 -2.17471 325.711 -2.17471 325.711C-2.17471 325.711 -7.80981 318.439 -10.6806 310.64C-13.1261 304.106 -14.0831 289.352 -14.0831 289.352C-14.0831 289.352 -23.3334 279.445 -27.6927 278.602C-31.9457 277.97 -30.3508 269.328 -21.8448 270.382C-13.3388 271.436 43.9704 272.7 57.7927 266.588C61.7267 264.901 68.4252 260.581 76.0806 255.1C76.8249 254.679 77.5693 254.152 78.3135 253.625L78.1008 252.571L77.8881 252.149Z" fill="url(#paint0_linear_4808_36972)" fill-opacity="0.11"/>
<defs>
<linearGradient id="paint0_linear_4808_36972" x1="-241.491" y1="542.624" x2="612.825" y2="302.534" gradientUnits="userSpaceOnUse">
<stop stop-color="#8F6D5F" stop-opacity="0.25"/>
<stop offset="1" stop-color="#8F6D5F" stop-opacity="0.4"/>
</linearGradient>
</defs>
</svg>
