<svg width="24" height="24" viewBox="0 0 24 24" fill="none" xmlns="http://www.w3.org/2000/svg">
<path d="M2.49542 19.5181L3.38643 19.0641V19.0641L2.49542 19.5181ZM4.48186 21.5046L4.02787 22.3956V22.3956L4.48186 21.5046ZM19.5181 2.49542L19.0641 3.38643V3.38643L19.5181 2.49542ZM21.5046 4.48186L20.6136 4.93585V4.93585L21.5046 4.48186ZM4.48186 2.49542L4.93585 3.38643V3.38643L4.48186 2.49542ZM2.49542 4.48186L3.38643 4.93585V4.93585L2.49542 4.48186ZM21 12C21 12.5523 21.4477 13 22 13C22.5523 13 23 12.5523 23 12H22H21ZM8.36008 22.999C8.91236 23.0009 9.36166 22.5548 9.36363 22.0025C9.3656 21.4503 8.91948 21.001 8.3672 20.999L8.36364 21.999L8.36008 22.999ZM7.25256 5.83835C6.86204 5.44782 6.22887 5.44782 5.83835 5.83835C5.44782 6.22887 5.44782 6.86204 5.83835 7.25256L6.54545 6.54545L7.25256 5.83835ZM8.95132 9.59414L9.65842 10.3012V10.3012L8.95132 9.59414ZM5.83835 11.2929C5.44782 11.6834 5.44782 12.3166 5.83835 12.7071C6.22887 13.0976 6.86204 13.0976 7.25256 12.7071L6.54545 12L5.83835 11.2929ZM21.1349 18.5766L20.2573 19.0559V19.0559L21.1349 18.5766ZM18.8563 14.4041L19.7339 13.9248V13.9248L18.8563 14.4041ZM14.2346 14.4041L13.357 13.9248V13.9248L14.2346 14.4041ZM11.956 18.5766L12.8336 19.0559H12.8336L11.956 18.5766ZM17.2374 12.1426L17.6357 11.2254H17.6357L17.2374 12.1426ZM15.8535 12.1426L16.2518 13.0599V13.0599L15.8535 12.1426ZM21.3172 21.7331L21.8565 22.5752V22.5752L21.3172 21.7331ZM21.9891 20.7377L21.0019 20.5783V20.5783L21.9891 20.7377ZM11.7737 21.7331L11.2344 22.5752H11.2344L11.7737 21.7331ZM11.1018 20.7377L12.089 20.5784V20.5784L11.1018 20.7377ZM17.5 15.3955C17.4975 14.8433 17.0478 14.3976 16.4955 14.4C15.9432 14.4025 15.4975 14.8522 15.5 15.4045L16.5 15.4L17.5 15.3955ZM15.509 17.4045C15.5115 17.9568 15.9612 18.4025 16.5135 18.4C17.0657 18.3975 17.5114 17.9478 17.509 17.3955L16.509 17.4L15.509 17.4045ZM17.5 19.8C17.5 19.2478 17.0523 18.8 16.5 18.8C15.9477 18.8 15.5 19.2478 15.5 19.8H16.5H17.5ZM15.5 19.8091C15.5 20.3614 15.9477 20.8091 16.5 20.8091C17.0523 20.8091 17.5 20.3614 17.5 19.8091H16.5H15.5ZM9.27273 2V3H14.7273V2V1H9.27273V2ZM2 14.7273H3V9.27273H2H1V14.7273H2ZM2 14.7273H1C1 15.9836 0.999222 16.986 1.06525 17.7942C1.13223 18.614 1.27291 19.3215 1.60442 19.9721L2.49542 19.5181L3.38643 19.0641C3.22252 18.7425 3.11548 18.3274 3.05861 17.6313C3.00078 16.9235 3 16.0166 3 14.7273H2ZM4.48186 21.5046L4.93585 20.6136C4.26873 20.2737 3.72635 19.7313 3.38643 19.0641L2.49542 19.5181L1.60442 19.9721C2.13608 21.0156 2.98443 21.8639 4.02787 22.3956L4.48186 21.5046ZM14.7273 2V3C16.0166 3 16.9235 3.00078 17.6313 3.05861C18.3274 3.11548 18.7425 3.22252 19.0641 3.38643L19.5181 2.49542L19.9721 1.60442C19.3215 1.27291 18.614 1.13223 17.7942 1.06525C16.986 0.999222 15.9836 1 14.7273 1V2ZM22 9.27273H23C23 8.01638 23.0008 7.01398 22.9348 6.20585C22.8678 5.38604 22.7271 4.6785 22.3956 4.02787L21.5046 4.48186L20.6136 4.93585C20.7775 5.25755 20.8845 5.67259 20.9414 6.36871C20.9992 7.07651 21 7.98338 21 9.27273H22ZM19.5181 2.49542L19.0641 3.38643C19.7313 3.72635 20.2737 4.26873 20.6136 4.93585L21.5046 4.48186L22.3956 4.02787C21.8639 2.98443 21.0156 2.13608 19.9721 1.60442L19.5181 2.49542ZM9.27273 2V1C8.01638 1 7.01398 0.999222 6.20585 1.06525C5.38604 1.13223 4.6785 1.27291 4.02787 1.60442L4.48186 2.49542L4.93585 3.38643C5.25755 3.22252 5.67259 3.11548 6.36871 3.05861C7.07651 3.00078 7.98338 3 9.27273 3V2ZM2 9.27273H3C3 7.98338 3.00078 7.07651 3.05861 6.36871C3.11548 5.67259 3.22252 5.25755 3.38643 4.93585L2.49542 4.48186L1.60442 4.02787C1.27291 4.6785 1.13223 5.38604 1.06525 6.20585C0.999222 7.01398 1 8.01638 1 9.27273H2ZM4.48186 2.49542L4.02787 1.60442C2.98443 2.13608 2.13608 2.98443 1.60442 4.02787L2.49542 4.48186L3.38643 4.93585C3.72635 4.26873 4.26873 3.72635 4.93585 3.38643L4.48186 2.49542ZM22 9.27273H21V12H22H23V9.27273H22ZM8.36364 21.999L8.3672 20.999C6.34903 20.9918 5.53188 20.9173 4.93585 20.6136L4.48186 21.5046L4.02787 22.3956C5.12988 22.9571 6.46903 22.9923 8.36008 22.999L8.36364 21.999ZM6.54545 6.54545L5.83835 7.25256L8.24421 9.65842L8.95132 8.95132L9.65842 8.24421L7.25256 5.83835L6.54545 6.54545ZM8.95132 9.59414L8.24421 8.88703L5.83835 11.2929L6.54545 12L7.25256 12.7071L9.65842 10.3012L8.95132 9.59414ZM8.95132 8.95132L8.24421 9.65842C8.0312 9.44541 8.0312 9.10005 8.24421 8.88703L8.95132 9.59414L9.65842 10.3012C10.2265 9.73321 10.2265 8.81224 9.65842 8.24421L8.95132 8.95132ZM14.2668 22V23H18.8241V22V21H14.2668V22ZM21.1349 18.5766L22.0126 18.0973L19.7339 13.9248L18.8563 14.4041L17.9786 14.8834L20.2573 19.0559L21.1349 18.5766ZM14.2346 14.4041L13.357 13.9248L11.0783 18.0973L11.956 18.5766L12.8336 19.0559L15.1123 14.8834L14.2346 14.4041ZM18.8563 14.4041L19.7339 13.9248C19.3719 13.2619 19.0668 12.7008 18.7849 12.2842C18.5069 11.8732 18.1554 11.451 17.6357 11.2254L17.2374 12.1426L16.8391 13.0599C16.8227 13.0527 16.9088 13.0803 17.1284 13.4049C17.3442 13.7239 17.5969 14.1843 17.9786 14.8834L18.8563 14.4041ZM14.2346 14.4041L15.1123 14.8834C15.494 14.1843 15.7467 13.7239 15.9625 13.4049C16.1822 13.0803 16.2682 13.0527 16.2518 13.0599L15.8535 12.1426L15.4552 11.2254C14.9355 11.451 14.5841 11.8732 14.306 12.2842C14.0241 12.7008 13.719 13.2619 13.357 13.9248L14.2346 14.4041ZM17.2374 12.1426L17.6357 11.2254C16.9437 10.9249 16.1472 10.9249 15.4552 11.2254L15.8535 12.1426L16.2518 13.0599C16.4357 12.98 16.6553 12.98 16.8391 13.0599L17.2374 12.1426ZM18.8241 22V23C19.4983 23 20.0671 23.0008 20.5169 22.9631C20.9619 22.9259 21.4386 22.8428 21.8565 22.5752L21.3172 21.7331L20.7779 20.891C20.779 20.8903 20.7013 20.9407 20.3499 20.9701C20.0034 20.9992 19.5341 21 18.8241 21V22ZM21.1349 18.5766L20.2573 19.0559C20.5768 19.641 20.7803 20.016 20.9023 20.3018C21.0256 20.591 20.9932 20.6325 21.0019 20.5783L21.9891 20.7377L22.9764 20.897C23.0594 20.3821 22.9094 19.9098 22.7418 19.5171C22.5728 19.1209 22.3121 18.6458 22.0126 18.0973L21.1349 18.5766ZM21.3172 21.7331L21.8565 22.5752C22.4437 22.1992 22.8631 21.5989 22.9764 20.897L21.9891 20.7377L21.0019 20.5783C20.9853 20.681 20.9186 20.8008 20.7779 20.891L21.3172 21.7331ZM14.2668 22V21C13.5568 21 13.0875 20.9992 12.741 20.9701C12.3896 20.9407 12.312 20.8903 12.313 20.891L11.7737 21.7331L11.2344 22.5752C11.6523 22.8428 12.129 22.9259 12.574 22.9631C13.0238 23.0008 13.5926 23 14.2668 23V22ZM11.956 18.5766L11.0783 18.0973C10.7788 18.6458 10.5181 19.1209 10.3491 19.5171C10.1815 19.9098 10.0315 20.3821 10.1145 20.897L11.1018 20.7377L12.089 20.5784C12.0977 20.6325 12.0653 20.591 12.1887 20.3019C12.3106 20.016 12.5141 19.641 12.8336 19.0559L11.956 18.5766ZM11.7737 21.7331L12.313 20.891C12.1723 20.8008 12.1056 20.681 12.089 20.5784L11.1018 20.7377L10.1145 20.897C10.2278 21.5989 10.6472 22.1992 11.2344 22.5752L11.7737 21.7331ZM16.5 15.4L15.5 15.4045L15.509 17.4045L16.509 17.4L17.509 17.3955L17.5 15.3955L16.5 15.4ZM16.5 19.8H15.5V19.8091H16.5H17.5V19.8H16.5Z" fill="#9E9E9E"/>
</svg>
