<svg width="24" height="24" viewBox="0 0 24 24" fill="none" xmlns="http://www.w3.org/2000/svg">
<path d="M9 20.4159V13.4159C9 12.8636 9.44772 12.4159 10 12.4159H14C14.5523 12.4159 15 12.8636 15 13.4159V20.4159M4 18.4159V10.8568C4 9.65711 4.53851 8.52074 5.46705 7.76102L10.7335 3.45209C11.4703 2.84931 12.5297 2.8493 13.2665 3.45209L18.533 7.76102C19.4615 8.52074 20 9.65712 20 10.8568V18.4159C20 19.5205 19.1046 20.4159 18 20.4159H16H8H6C4.89543 20.4159 4 19.5204 4 18.4159Z" stroke="#9E9E9E" stroke-width="2" stroke-linecap="round"/>
</svg>
