<svg width="24" height="24" viewBox="0 0 24 24" fill="none" xmlns="http://www.w3.org/2000/svg">
<path d="M7.5 3.47368C4.86686 3.47368 2.65516 5.35965 2.03404 7.90965C1.84192 8.69838 2.49129 9.36842 3.27001 9.36842H11.73C12.5087 9.36842 13.1581 8.69838 12.966 7.90965C12.3448 5.35965 10.1331 3.47368 7.5 3.47368ZM7.5 3.47368V2M7.5 9.36842V14.5263C7.5 15.3402 6.86872 16 6.09 16C5.31128 16 4.68 15.3402 4.68 14.5263V13.7895" stroke="#9E9E9E" stroke-width="2" stroke-linecap="round"/>
<path d="M16.5 17.625C18.0533 17.625 19.3125 16.3658 19.3125 14.8125C19.3125 13.2592 18.0533 12 16.5 12C14.9467 12 13.6875 13.2592 13.6875 14.8125C13.6875 16.3658 14.9467 17.625 16.5 17.625ZM16.5 17.625C14.0147 17.625 12 19.136 12 21M16.5 17.625C18.9853 17.625 21 19.136 21 21" stroke="#9E9E9E" stroke-width="2" stroke-linecap="round"/>
</svg>
