<svg width="24" height="24" viewBox="0 0 24 24" fill="none" xmlns="http://www.w3.org/2000/svg">
<path d="M9 17C9.55228 17 10 16.5523 10 16C10 15.4477 9.55228 15 9 15V16V17ZM9 2C9 1.44772 8.55228 1 8 1C7.44772 1 7 1.44772 7 2H8H9ZM7 16C7 16.5523 7.44772 17 8 17C8.55228 17 9 16.5523 9 16H8H7ZM16.4268 17.9447L15.8239 17.1469V17.1469L16.4268 17.9447ZM19.6029 16.7978C20.0435 16.4648 20.1308 15.8377 19.7978 15.3971C19.4648 14.9565 18.8377 14.8692 18.3971 15.2022L19 16L19.6029 16.7978ZM16.0732 17.9447L16.6761 17.1469V17.1469L16.0732 17.9447ZM15.6029 16.3358C15.1623 16.0028 14.5352 16.0901 14.2022 16.5307C13.8692 16.9713 13.9565 17.5984 14.3971 17.9314L15 17.1336L15.6029 16.3358ZM7 16V17H9V16V15H7V16ZM10 22V21H7V22V23H10V22ZM7 22V21C5.89543 21 5 20.1046 5 19H4H3C3 21.2091 4.79086 23 7 23V22ZM7 16V15C4.79086 15 3 16.7909 3 19H4H5C5 17.8954 5.89543 17 7 17V16ZM7 2V3H18V2V1H7V2ZM18 2V3C18.5523 3 19 3.44772 19 4H20H21C21 2.34315 19.6569 1 18 1V2ZM7 2V1C4.79086 1 3 2.79086 3 5H4H5C5 3.89543 5.89543 3 7 3V2ZM4 5H3V19H4H5V5H4ZM20 4H19V9H20H21V4H20ZM8 2H7V16H8H9V2H8ZM16.4268 17.9447L17.0297 18.7425L19.6029 16.7978L19 16L18.3971 15.2022L15.8239 17.1469L16.4268 17.9447ZM16.0732 17.9447L16.6761 17.1469L15.6029 16.3358L15 17.1336L14.3971 17.9314L15.4703 18.7425L16.0732 17.9447ZM16.4268 17.9447L15.8239 17.1469C15.9769 17.0312 16.1346 17 16.25 17C16.3654 17 16.5231 17.0312 16.6761 17.1469L16.0732 17.9447L15.4703 18.7425C15.721 18.9319 16.0067 19 16.25 19C16.4933 19 16.779 18.9319 17.0297 18.7425L16.4268 17.9447ZM22 17H21C21 19.2091 19.2091 21 17 21V22V23C20.3137 23 23 20.3137 23 17H22ZM17 22V21C14.7909 21 13 19.2091 13 17H12H11C11 20.3137 13.6863 23 17 23V22ZM12 17H13C13 14.7909 14.7909 13 17 13V12V11C13.6863 11 11 13.6863 11 17H12ZM17 12V13C19.2091 13 21 14.7909 21 17H22H23C23 13.6863 20.3137 11 17 11V12Z" fill="#9E9E9E"/>
</svg>
