<svg width="140" height="120" viewBox="0 0 140 120" fill="none" xmlns="http://www.w3.org/2000/svg" role="img" aria-labelledby="title desc">
  <title id="title">Cliffside Brokers</title>
  <desc id="desc">Marka Cliffside Brokers z symbolem konia i linią horyzontu</desc>
  <rect width="140" height="120" fill="none" />
  <g fill="#A77D67">
    <path d="M69 27c2.6-4 6.7-6 12.2-6 2.6 0 4.7 1 6.4 2.8 2 .5 3.8 1.4 5 2.7 1.8 2 2.2 4.6 1 7.9l-2 5.5c-.4 1.1-1.4 1.9-2.6 2.1L84 43.6l-2.2 3.7c-.7 1.2-2.2 1.7-3.5 1.2l-5.6-2.1-2.7 4.4c-.8 1.3-2.5 1.8-3.9 1.1l-5-2.4c-1.6-.7-2.3-2.6-1.5-4.1l3.3-6.3c.6-1.2 1.9-1.9 3.3-1.7l3.5.6 2-3.3-2.9-1.6c-1.5-.9-2-2.9-1-4.4Z"/>
    <rect x="28" y="60" width="84" height="3" rx="1.5" />
  </g>
  <text x="70" y="84" text-anchor="middle" fill="#F7F5F2" font-family="'Cormorant Garamond', 'Times New Roman', serif" font-size="18" letter-spacing="2">CLIFFSIDE</text>
  <text x="70" y="102" text-anchor="middle" fill="#F7F5F2" font-family="'Inter', 'Helvetica Neue', Arial, sans-serif" font-size="11" letter-spacing="4">BROKERS</text>
</svg>
