<svg width="96" height="69" viewBox="0 0 96 69" fill="none" xmlns="http://www.w3.org/2000/svg">
<g clip-path="url(#clip0_4680_4565)">
<path d="M2.24139 47.5777C0.572242 46.19 0.132812 44.3633 0.132812 42.8068C0.132812 41.7027 0.497301 39.8018 2.10854 38.3769C3.33486 37.3133 4.9461 36.665 7.46004 36.665C8.51604 36.665 9.14963 36.7427 9.91608 36.8372C10.5497 36.9318 11.1049 37.0466 11.6057 37.104C11.7964 37.1242 11.8543 37.1985 11.8543 37.2931C11.8543 37.4247 11.8169 37.6172 11.776 38.1878C11.7385 38.7213 11.7385 39.6127 11.7181 39.9368C11.6976 40.1664 11.6397 40.3352 11.4864 40.3352C11.3536 40.3352 11.3127 40.2036 11.3127 39.9942C11.2923 39.481 11.0811 38.9104 10.6621 38.4917C10.0864 37.9413 8.95547 37.5395 7.40213 37.5395C5.8488 37.5395 4.98697 37.8063 4.21712 38.4512C2.97037 39.5148 2.66379 41.0747 2.66379 42.6515C2.66379 46.4905 5.65463 48.3172 7.91991 48.3172C9.41533 48.3172 10.2397 48.2024 10.9108 47.4629C11.1969 47.1388 11.4285 46.683 11.4864 46.3791C11.5239 46.1326 11.5648 46.0549 11.6976 46.0549C11.8135 46.0549 11.8884 46.2069 11.8884 46.3386C11.8884 46.5276 11.6976 47.9356 11.5239 48.486C11.4456 48.7696 11.3706 48.8473 11.0811 48.9621C10.41 49.2288 9.12579 49.3233 8.03232 49.3233C5.72958 49.3233 3.77429 48.8473 2.24139 47.5743V47.5777Z" fill="#32343A"/>
<path d="M17.7577 44.424C17.7577 46.4972 17.7577 47.5236 18.1222 47.8275C18.4083 48.0739 19.0624 48.1685 20.367 48.1685C21.2697 48.1685 21.9204 48.1482 22.3428 47.7127C22.554 47.5033 22.7277 47.0475 22.7652 46.7436C22.7856 46.5917 22.8231 46.4972 22.9559 46.4972C23.0717 46.4972 23.1092 46.6693 23.1092 46.8584C23.1092 47.0475 22.9934 48.2462 22.8605 48.7222C22.7447 49.0835 22.6698 49.1578 21.7875 49.1578C20.5782 49.1578 19.6006 49.1375 18.7558 49.1004C17.911 49.0801 17.2025 49.0632 16.5109 49.0632C16.3202 49.0632 15.9557 49.0835 15.5503 49.0835C15.1484 49.1038 14.726 49.1206 14.3819 49.1206C14.1707 49.1206 14.0549 49.0633 14.0549 48.9485C14.0549 48.8742 14.1128 48.7763 14.324 48.7763C14.5727 48.7763 14.7634 48.756 14.9201 48.7189C15.2642 48.6446 15.3596 48.3373 15.4175 47.8646C15.4958 47.1792 15.4958 45.9063 15.4958 44.424V41.5709C15.4958 39.1196 15.4958 38.6604 15.4754 38.1506C15.4379 37.6002 15.2846 37.428 14.7464 37.2761C14.6136 37.2389 14.4024 37.2187 14.1912 37.2187C14.0004 37.2187 13.905 37.1613 13.905 37.0465C13.905 36.9317 14.0208 36.8945 14.2695 36.8945C15.0564 36.8945 16.1294 36.9317 16.5893 36.9317C16.9913 36.9317 18.3743 36.8945 19.0249 36.8945C19.2736 36.8945 19.3894 36.9317 19.3894 37.0465C19.3894 37.1613 19.294 37.2187 19.0828 37.2187C18.892 37.2187 18.6229 37.2389 18.4322 37.2761C17.9723 37.3537 17.836 37.58 17.7986 38.1506C17.7611 38.6638 17.7611 39.1196 17.7611 41.5709V44.424H17.7577Z" fill="#32343A"/>
<path d="M26.0831 41.5705C26.0831 39.1192 26.0831 38.66 26.0627 38.1501C26.0252 37.5998 25.8515 37.4073 25.487 37.2959C25.2962 37.2385 25.085 37.2182 24.8738 37.2182C24.7001 37.2182 24.6047 37.1811 24.6047 37.0291C24.6047 36.9346 24.7376 36.8975 25.0067 36.8975C25.6403 36.8975 26.7917 36.9346 27.2686 36.9346C27.691 36.9346 28.7844 36.8975 29.4351 36.8975C29.6463 36.8975 29.7791 36.9346 29.7791 37.0291C29.7791 37.1811 29.6837 37.2182 29.51 37.2182C29.3363 37.2182 29.2034 37.2385 29.0127 37.2756C28.5528 37.3533 28.4165 37.5795 28.3791 38.1501C28.3416 38.6633 28.3416 39.1192 28.3416 41.5705V44.4236C28.3416 45.9835 28.3416 47.2767 28.4199 47.9587C28.4778 48.3943 28.5937 48.6441 29.091 48.7184C29.3226 48.7555 29.7042 48.7758 29.9528 48.7758C30.1436 48.7758 30.2219 48.8703 30.2219 48.948C30.2219 49.0628 30.0891 49.1202 29.8949 49.1202C28.781 49.1202 27.6331 49.0628 27.1698 49.0628C26.7849 49.0628 25.6369 49.1202 24.9624 49.1202C24.7512 49.1202 24.6354 49.0628 24.6354 48.948C24.6354 48.8737 24.6933 48.7758 24.9045 48.7758C25.1532 48.7758 25.3439 48.7555 25.5006 48.7184C25.8447 48.6441 25.9401 48.4145 25.998 47.9384C26.0763 47.2733 26.0763 45.9801 26.0763 44.4202V41.5671L26.0831 41.5705Z" fill="#32343A"/>
<path d="M36.1526 44.4817C36.1526 46.0416 36.173 47.1829 36.2479 47.8649C36.3059 48.341 36.4217 48.6449 36.919 48.7191C37.1506 48.7563 37.5151 48.7765 37.7434 48.7765C37.9546 48.7765 38.0295 48.8711 38.0295 48.9487C38.0295 49.0635 37.9137 49.1209 37.665 49.1209C36.592 49.1209 35.4031 49.0635 34.9603 49.0635C34.5175 49.0635 33.4444 49.1209 32.8109 49.1209C32.5792 49.1209 32.4668 49.0838 32.4668 48.9487C32.4668 48.8745 32.5247 48.7765 32.7155 48.7765C32.9641 48.7765 33.1549 48.7563 33.3116 48.7191C33.6556 48.6449 33.751 48.3376 33.8089 47.8649C33.8873 47.1795 33.8873 45.9842 33.8873 44.4243V41.5712C33.8873 39.1199 33.8873 38.6607 33.8668 38.1509C33.8294 37.6005 33.6761 37.408 33.1379 37.2764C33.005 37.2392 32.7155 37.219 32.4668 37.219C32.3135 37.219 32.1807 37.1616 32.1807 37.0468C32.1807 36.932 32.3135 36.8948 32.5826 36.8948C33.4444 36.8948 34.5209 36.932 34.9978 36.932C35.6484 36.932 39.3887 36.9522 39.794 36.932C40.1006 36.9117 40.3118 36.8948 40.4855 36.8543C40.5809 36.834 40.6593 36.7598 40.7546 36.7598C40.8126 36.7598 40.8705 36.8374 40.8705 36.9117C40.8705 37.0265 40.7921 37.2156 40.7376 37.6343C40.7172 37.8065 40.6797 38.7552 40.6593 38.9477C40.6388 39.0794 40.6014 39.2718 40.4855 39.2718C40.3697 39.2718 40.2743 39.1942 40.2743 39.0051C40.2743 38.8734 40.2948 38.6236 40.179 38.3973C40.0631 38.1677 39.7395 37.9213 39.1059 37.9044L36.3059 37.847C36.2105 37.847 36.1526 37.8841 36.1526 38.0732V41.9899C36.1526 42.0844 36.173 42.1418 36.2684 42.1418L38.629 42.1216C38.9152 42.1216 39.1468 42.1216 39.3955 42.1013C39.7021 42.081 39.9507 42.0236 40.104 41.8177C40.1994 41.7231 40.2369 41.6455 40.3357 41.6455C40.3936 41.6455 40.431 41.7029 40.431 41.7974C40.431 41.892 40.3527 42.3309 40.2982 42.8441C40.2607 43.1683 40.2403 43.9077 40.2403 44.0225C40.2403 44.1542 40.2198 44.3838 40.0495 44.3838C39.9541 44.3838 39.8962 44.269 39.8962 44.1542C39.8962 44.0394 39.8588 43.8503 39.7804 43.6612C39.7021 43.4316 39.4943 43.1109 38.9765 43.0703C38.5541 43.0332 36.5613 43.0129 36.2718 43.0129C36.1934 43.0129 36.156 43.0332 36.156 43.1446V44.4749L36.1526 44.4817Z" fill="#32343A"/>
<path d="M46.6443 44.4817C46.6443 46.0416 46.6647 47.1829 46.7396 47.8649C46.7976 48.341 46.9134 48.6449 47.4107 48.7191C47.6423 48.7563 48.0068 48.7765 48.2351 48.7765C48.4463 48.7765 48.5212 48.8711 48.5212 48.9487C48.5212 49.0635 48.4054 49.1209 48.1567 49.1209C47.0837 49.1209 45.8948 49.0635 45.452 49.0635C45.0092 49.0635 43.9362 49.1209 43.3026 49.1209C43.0709 49.1209 42.9585 49.0838 42.9585 48.9487C42.9585 48.8745 43.0164 48.7765 43.2072 48.7765C43.4558 48.7765 43.6466 48.7563 43.8033 48.7191C44.1473 48.6449 44.2427 48.3376 44.3006 47.8649C44.379 47.1795 44.379 45.9842 44.379 44.4243V41.5712C44.379 39.1199 44.379 38.6607 44.3585 38.1509C44.3211 37.6005 44.1678 37.408 43.6296 37.2764C43.4967 37.2392 43.2072 37.219 42.9585 37.219C42.8052 37.219 42.6724 37.1616 42.6724 37.0468C42.6724 36.932 42.8052 36.8948 43.0743 36.8948C43.9361 36.8948 45.0126 36.932 45.4895 36.932C46.1401 36.932 49.8804 36.9522 50.2857 36.932C50.5923 36.9117 50.8035 36.8948 50.9772 36.8543C51.0726 36.834 51.151 36.7598 51.2463 36.7598C51.3043 36.7598 51.3622 36.8374 51.3622 36.9117C51.3622 37.0265 51.2872 37.2156 51.2293 37.6343C51.2089 37.8065 51.1714 38.7552 51.151 38.9477C51.1305 39.0794 51.0931 39.2718 50.9772 39.2718C50.8614 39.2718 50.766 39.1942 50.766 39.0051C50.766 38.8734 50.7865 38.6236 50.6707 38.3973C50.5548 38.1677 50.2278 37.9213 49.5976 37.9044L46.7976 37.847C46.7022 37.847 46.6443 37.8841 46.6443 38.0732V41.9899C46.6443 42.0844 46.6647 42.1418 46.7601 42.1418L49.1173 42.1216C49.4069 42.1216 49.6351 42.1216 49.8838 42.1013C50.1904 42.081 50.439 42.0236 50.5923 41.8177C50.6877 41.7231 50.7252 41.6455 50.8239 41.6455C50.8819 41.6455 50.9193 41.7029 50.9193 41.7974C50.9193 41.892 50.8444 42.3309 50.7865 42.8441C50.749 43.1683 50.7286 43.9077 50.7286 44.0225C50.7286 44.1542 50.7081 44.3838 50.5378 44.3838C50.4424 44.3838 50.3845 44.269 50.3845 44.1542C50.3845 44.0394 50.3471 43.8503 50.2687 43.6612C50.1938 43.4316 49.9826 43.1109 49.4614 43.0703C49.039 43.0332 47.0462 43.0129 46.7567 43.0129C46.6783 43.0129 46.6409 43.0332 46.6409 43.1446V44.4749L46.6443 44.4817Z" fill="#32343A"/>
<path d="M54.3395 48.911C54.0704 48.7962 54.0125 48.7219 54.0125 48.3606C54.0125 47.4861 54.0908 46.4799 54.1078 46.2132C54.1078 45.9667 54.1862 45.7945 54.319 45.7945C54.4723 45.7945 54.4928 45.9464 54.4928 46.0612C54.4928 46.2706 54.5507 46.6116 54.646 46.8986C55.0105 48.0972 56.2777 48.4957 57.3303 48.4957C58.7883 48.4957 59.6705 47.584 59.6705 46.4428C59.6705 45.7405 59.4968 45.0348 58.0014 44.1603L57.0237 43.5897C55.0276 42.4316 54.3769 41.3477 54.3769 39.9195C54.3769 37.9409 56.2948 36.668 58.635 36.668C59.7284 36.668 60.5903 36.8199 61.0331 36.9347C61.1864 36.9718 61.2647 37.0292 61.2647 37.144C61.2647 37.3534 61.2068 37.8092 61.2068 39.0821C61.2068 39.4232 61.1285 39.5953 60.9956 39.5953C60.8798 39.5953 60.8219 39.5008 60.8219 39.3117C60.8219 39.1598 60.747 38.6668 60.3825 38.2481C60.1338 37.9443 59.5956 37.4884 58.5021 37.4884C57.2928 37.4884 56.1994 38.1165 56.1994 39.2172C56.1994 39.9397 56.4685 40.5104 57.9843 41.3477L58.6759 41.7259C60.9003 42.9414 61.5918 44.1772 61.5918 45.6426C61.5918 46.8412 61.1319 47.8103 59.9056 48.6645C59.0983 49.2351 57.9878 49.3297 57.0851 49.3297C56.1074 49.3297 55.0719 49.2351 54.3429 48.911H54.3395Z" fill="#32343A"/>
<path d="M65.233 41.5705C65.233 39.1192 65.233 38.66 65.2126 38.1501C65.1751 37.5998 65.0014 37.4073 64.6369 37.2959C64.4461 37.2385 64.2349 37.2182 64.0237 37.2182C63.85 37.2182 63.7546 37.1811 63.7546 37.0291C63.7546 36.9346 63.8875 36.8975 64.1566 36.8975C64.7902 36.8975 65.9416 36.9346 66.4185 36.9346C66.8409 36.9346 67.9343 36.8975 68.585 36.8975C68.7962 36.8975 68.929 36.9346 68.929 37.0291C68.929 37.1811 68.8336 37.2182 68.6599 37.2182C68.4862 37.2182 68.3533 37.2385 68.1626 37.2756C67.7027 37.3533 67.5664 37.5795 67.529 38.1501C67.4915 38.6633 67.4915 39.1192 67.4915 41.5705V44.4236C67.4915 45.9835 67.4915 47.2767 67.5698 47.9587C67.6277 48.3943 67.7436 48.6441 68.2409 48.7184C68.4725 48.7555 68.8541 48.7758 69.1027 48.7758C69.2935 48.7758 69.3718 48.8703 69.3718 48.948C69.3718 49.0628 69.239 49.1202 69.0448 49.1202C67.9309 49.1202 66.783 49.0628 66.3231 49.0628C65.9382 49.0628 64.7902 49.1202 64.1157 49.1202C63.9045 49.1202 63.7887 49.0628 63.7887 48.948C63.7887 48.8737 63.8466 48.7758 64.0578 48.7758C64.3065 48.7758 64.4972 48.7555 64.6539 48.7184C64.998 48.6441 65.0934 48.4145 65.1513 47.9384C65.2296 47.2733 65.2296 45.9801 65.2296 44.4202V41.5671L65.233 41.5705Z" fill="#32343A"/>
<path d="M73.0406 41.5709C73.0406 39.1196 73.0406 38.6604 73.0202 38.1506C72.9827 37.6002 72.8294 37.428 72.2912 37.2761C72.1583 37.2389 71.8688 37.2187 71.6201 37.2187C71.4464 37.2187 71.334 37.1613 71.334 37.0465C71.334 36.9317 71.4668 36.8945 71.7189 36.8945C72.6012 36.8945 73.6742 36.9317 74.1545 36.9317C74.6723 36.9317 75.8816 36.8945 76.8967 36.8945C79.0053 36.8945 81.8462 36.8945 83.6857 38.7381C84.5305 39.5754 85.2765 40.926 85.2765 42.8438C85.2765 44.8798 84.3942 46.4195 83.4336 47.348C82.6672 48.1077 80.8822 49.249 77.7755 49.249C77.1624 49.249 76.4334 49.1916 75.7623 49.1544C75.0913 49.097 74.4781 49.0599 74.0557 49.0599C73.865 49.0599 73.5005 49.0801 73.0951 49.0801C72.6931 49.1004 72.2707 49.1173 71.9267 49.1173C71.7155 49.1173 71.5997 49.0599 71.5997 48.9451C71.5997 48.8708 71.6576 48.7729 71.8688 48.7729C72.1175 48.7729 72.3082 48.7526 72.4649 48.7155C72.809 48.6412 72.9043 48.3339 72.9623 47.8612C73.0406 47.1758 73.0406 45.9029 73.0406 44.4206V41.5675V41.5709ZM75.3025 43.3571C75.3025 45.0689 75.3229 46.3047 75.3399 46.6255C75.3604 47.0239 75.3979 47.5945 75.5307 47.7667C75.7419 48.0706 76.413 48.4116 77.7381 48.4116C79.271 48.4116 80.4053 48.1449 81.4204 47.3075C82.5139 46.4127 82.8579 44.9676 82.8579 43.2963C82.8579 41.2434 82.0336 39.9131 81.2842 39.2648C79.7308 37.8973 77.888 37.7251 76.5663 37.7251C76.2222 37.7251 75.6636 37.7623 75.5307 37.8399C75.3774 37.8973 75.3195 37.9716 75.3195 38.1641C75.2991 38.7144 75.2991 40.0448 75.2991 41.3211V43.3537L75.3025 43.3571Z" fill="#32343A"/>
<path d="M88.7887 41.5712C88.7887 39.1199 88.7887 38.6607 88.7682 38.1509C88.7307 37.6005 88.5775 37.4283 88.0392 37.2764C87.9064 37.2392 87.6168 37.219 87.3682 37.219C87.1944 37.219 87.082 37.1616 87.082 37.0468C87.082 36.932 87.2149 36.8948 87.4636 36.8948C88.3458 36.8948 89.4188 36.932 89.8991 36.932C90.4374 36.932 94.1776 36.9522 94.5012 36.932C94.8078 36.9117 95.0769 36.8543 95.2098 36.8374C95.3052 36.8172 95.4005 36.7598 95.4789 36.7598C95.5743 36.7598 95.5947 36.8374 95.5947 36.9117C95.5947 37.0265 95.4993 37.2156 95.4618 37.9584C95.4414 38.1306 95.4039 38.8329 95.3665 39.022C95.346 39.0963 95.3086 39.2887 95.1757 39.2887C95.0599 39.2887 95.0429 39.2144 95.0429 39.0794C95.0429 38.9646 95.0224 38.681 94.927 38.4885C94.7942 38.2049 94.6579 37.9753 93.8131 37.8976C93.527 37.8605 91.5104 37.82 91.1663 37.82C91.0914 37.82 91.0505 37.8774 91.0505 37.9719V41.9629C91.0505 42.0574 91.071 42.1351 91.1663 42.1351C91.5513 42.1351 93.7348 42.1351 94.1197 42.0979C94.5217 42.0608 94.7703 42.0203 94.9236 41.8514C95.0565 41.7366 95.1144 41.6421 95.1927 41.6421C95.2711 41.6421 95.3256 41.7164 95.3256 41.8143C95.3256 41.9122 95.2881 42.1756 95.1927 42.9927C95.1553 43.3168 95.1178 43.9617 95.1178 44.0765C95.1178 44.2082 95.0974 44.4378 94.9441 44.4378C94.8283 44.4378 94.7908 44.3804 94.7908 44.3061C94.7703 44.1339 94.7703 43.9246 94.7329 43.7152C94.6375 43.3911 94.4263 43.1446 93.7927 43.0872C93.4861 43.0501 91.5683 43.0129 91.1459 43.0129C91.071 43.0129 91.0505 43.0872 91.0505 43.1851V44.4783C91.0505 45.0287 91.0301 46.3995 91.0505 46.8722C91.088 47.9763 91.6058 48.2228 93.3328 48.2228C93.7757 48.2228 94.4842 48.2025 94.9236 48.0135C95.346 47.8244 95.5368 47.48 95.6526 46.8148C95.6901 46.6426 95.7275 46.5683 95.8434 46.5683C95.9762 46.5683 95.9967 46.7777 95.9967 46.9499C95.9967 47.3112 95.8638 48.4153 95.765 48.736C95.6492 49.1547 95.4959 49.1547 94.8623 49.1547C93.5951 49.1547 92.58 49.1344 91.7556 49.0973C90.9313 49.077 90.2977 49.0602 89.8004 49.0602C89.6096 49.0602 89.2451 49.0804 88.8397 49.0804C88.4378 49.1007 88.0154 49.1176 87.6713 49.1176C87.4601 49.1176 87.3443 49.0602 87.3443 48.9454C87.3443 48.8711 87.4022 48.7732 87.6134 48.7732C87.8621 48.7732 88.0529 48.7529 88.2096 48.7158C88.5536 48.6415 88.649 48.3342 88.7069 47.8615C88.7852 47.1761 88.7853 45.9032 88.7853 44.4209V41.5678L88.7887 41.5712Z" fill="#32343A"/>
<path d="M0.18042 68.1844V58.916H2.86809C3.3995 58.916 3.86277 58.97 4.25451 59.0747C4.64625 59.1794 4.96986 59.3347 5.22534 59.5373C5.48082 59.7399 5.67158 59.9863 5.79422 60.2801C5.91685 60.5738 5.97816 60.9047 5.97816 61.2761C5.97816 61.5193 5.93388 61.7556 5.84872 61.9818C5.76356 62.2081 5.63752 62.4174 5.47401 62.6098C5.3105 62.8023 5.11293 62.9678 4.87789 63.1096C4.64284 63.2514 4.37373 63.3594 4.07397 63.4337C4.80976 63.5417 5.37522 63.7849 5.77037 64.163C6.16552 64.5412 6.36309 65.0341 6.36309 65.6453C6.36309 66.0369 6.29155 66.3915 6.15189 66.7055C6.01223 67.0195 5.80443 67.2862 5.53873 67.5057C5.26963 67.7252 4.9392 67.8906 4.54746 68.0054C4.15572 68.1202 3.70948 68.1776 3.21214 68.1776H0.18042V68.1844ZM0.861706 63.2547H2.88512C3.31774 63.2547 3.68564 63.2007 3.99221 63.0893C4.29879 62.9813 4.55087 62.8361 4.74504 62.6571C4.9392 62.4782 5.08568 62.2756 5.17765 62.0494C5.26963 61.8231 5.31732 61.5902 5.31732 61.3504C5.31732 60.7258 5.11974 60.2531 4.71778 59.9323C4.31583 59.6116 3.70267 59.4529 2.8715 59.4529H0.861706V63.2581V63.2547ZM0.861706 63.7443V67.6475H3.20874C4.02628 67.6475 4.64966 67.4719 5.06865 67.1208C5.48764 66.7696 5.69883 66.2733 5.69883 65.6385C5.69883 65.3448 5.64433 65.0814 5.53192 64.8484C5.41951 64.6155 5.25941 64.4162 5.0448 64.2508C4.8336 64.0887 4.57471 63.9604 4.26473 63.8726C3.95474 63.7849 3.60729 63.741 3.21555 63.741H0.861706V63.7443Z" fill="#32343A"/>
<path d="M15.8195 63.9942V68.1844H15.1382V58.916H17.5295C18.6025 58.916 19.4098 59.122 19.9447 59.5339C20.4795 59.9458 20.7486 60.5536 20.7486 61.3504C20.7486 61.705 20.6873 62.0257 20.5612 62.3195C20.4352 62.6132 20.258 62.8698 20.0264 63.0893C19.7948 63.3088 19.5154 63.4911 19.1884 63.6329C18.8614 63.7747 18.4935 63.8693 18.0882 63.9098C18.1938 63.9739 18.2891 64.0617 18.3709 64.1731L21.59 68.181H21.0075C20.9325 68.181 20.8712 68.1675 20.8201 68.1438C20.769 68.1202 20.7213 68.0763 20.677 68.0088L17.676 64.2508C17.6419 64.2035 17.6044 64.1596 17.567 64.1259C17.5295 64.0921 17.4886 64.0651 17.4409 64.0448C17.3932 64.0246 17.3387 64.0111 17.2774 64.0009C17.2127 63.9908 17.1344 63.9874 17.0424 63.9874H15.8195V63.9942ZM15.8195 63.4979H17.4375C17.8531 63.4979 18.221 63.4472 18.5514 63.3493C18.8818 63.2514 19.1578 63.1096 19.3826 62.9272C19.6108 62.7449 19.7811 62.5221 19.9004 62.2655C20.0196 62.0088 20.0775 61.7185 20.0775 61.3943C20.0775 60.7359 19.8595 60.2463 19.4269 59.9289C18.9943 59.6116 18.3607 59.4495 17.5261 59.4495H15.8161V63.4979H15.8195Z" fill="#32343A"/>
<path d="M37.9952 63.5482C37.9952 64.264 37.8862 64.9123 37.6716 65.4964C37.457 66.0806 37.1504 66.5769 36.7587 66.9888C36.3669 67.4008 35.8968 67.7215 35.3484 67.9444C34.8 68.1706 34.197 68.282 33.5362 68.282C32.8753 68.282 32.2724 68.1706 31.7274 67.9444C31.1823 67.7181 30.7123 67.4008 30.3205 66.9888C29.9288 66.5769 29.6256 66.0772 29.4076 65.4964C29.193 64.9123 29.084 64.264 29.084 63.5482C29.084 62.8324 29.193 62.1909 29.4076 61.6068C29.6222 61.0227 29.9288 60.5263 30.3205 60.1144C30.7123 59.7025 31.1823 59.3817 31.7274 59.1555C32.2724 58.9293 32.8753 58.8145 33.5362 58.8145C34.197 58.8145 34.8 58.9259 35.3484 59.1521C35.8968 59.3783 36.3669 59.6957 36.7587 60.111C37.1504 60.5263 37.4536 61.026 37.6716 61.6068C37.8862 62.1909 37.9952 62.8358 37.9952 63.5482ZM37.2935 63.5482C37.2935 62.9033 37.2015 62.3226 37.021 61.806C36.8404 61.2894 36.5849 60.8538 36.2545 60.4959C35.9241 60.138 35.529 59.8645 35.0657 59.6721C34.6024 59.483 34.0914 59.3884 33.5328 59.3884C32.9741 59.3884 32.47 59.483 32.0067 59.6721C31.5434 59.8611 31.1483 60.138 30.8145 60.4959C30.4806 60.8538 30.2251 61.2894 30.0412 61.806C29.8572 62.3226 29.7687 62.9033 29.7687 63.5482C29.7687 64.1931 29.8607 64.7806 30.0412 65.2939C30.2251 65.8071 30.4806 66.2426 30.8145 66.6005C31.1483 66.9584 31.5434 67.2319 32.0067 67.4176C32.47 67.6067 32.9775 67.6979 33.5328 67.6979C34.088 67.6979 34.6024 67.6033 35.0657 67.4176C35.529 67.2286 35.9241 66.9584 36.2545 66.6005C36.5849 66.2426 36.8404 65.8071 37.021 65.2939C37.2015 64.7806 37.2935 64.1999 37.2935 63.5482Z" fill="#32343A"/>
<path d="M47.4379 63.1939H47.9931C48.0783 63.1939 48.1498 63.1939 48.2111 63.1838C48.2724 63.177 48.3303 63.1669 48.378 63.1466C48.4291 63.1297 48.4734 63.1027 48.5177 63.0723C48.5586 63.0386 48.6063 62.9981 48.6539 62.9508L52.4249 59.105C52.4896 59.0307 52.5543 58.9801 52.619 58.9531C52.6838 58.9261 52.7587 58.9126 52.8473 58.9126H53.3889L49.3046 63.0723C49.2194 63.1601 49.1479 63.2277 49.0832 63.2749C49.0184 63.3222 48.9469 63.3627 48.8686 63.3931C48.9605 63.4201 49.0457 63.4606 49.1206 63.5147C49.1956 63.5687 49.2705 63.6396 49.3455 63.7274L53.6478 68.1809H53.0993C52.9835 68.1809 52.9018 68.1674 52.8507 68.137C52.7996 68.11 52.7519 68.0627 52.7008 68.002L48.7493 63.9941C48.7016 63.9468 48.654 63.9029 48.6131 63.8692C48.5722 63.8354 48.5245 63.805 48.4734 63.7814C48.4223 63.7578 48.3644 63.7409 48.2963 63.7274C48.2281 63.7172 48.1396 63.7105 48.034 63.7105H47.431V68.1775H46.7498V58.9092H47.431V63.1871L47.4379 63.1939Z" fill="#32343A"/>
<path d="M67.3553 58.9194V59.4765H62.433V63.221H66.5309V63.7646H62.433V67.6272H67.3689L67.3553 68.1844H61.7517V58.916H67.3553V58.9194Z" fill="#32343A"/>
<path d="M76.7059 63.9942V68.1844H76.0247V58.916H78.416C79.489 58.916 80.2963 59.122 80.8311 59.5339C81.3659 59.9458 81.635 60.5536 81.635 61.3504C81.635 61.705 81.5737 62.0257 81.4477 62.3195C81.3217 62.6132 81.1445 62.8698 80.9129 63.0893C80.6812 63.3088 80.4019 63.4911 80.0749 63.6329C79.7479 63.7747 79.38 63.8693 78.9746 63.9098C79.0802 63.9739 79.1756 64.0617 79.2574 64.1731L82.4764 68.181H81.8939C81.819 68.181 81.7577 68.1675 81.7066 68.1438C81.6555 68.1202 81.6078 68.0763 81.5635 68.0088L78.5625 64.2508C78.5284 64.2035 78.4909 64.1596 78.4534 64.1259C78.416 64.0921 78.3751 64.0651 78.3274 64.0448C78.2797 64.0246 78.2252 64.0111 78.1639 64.0009C78.0992 63.9908 78.0208 63.9874 77.9289 63.9874H76.7059V63.9942ZM76.7059 63.4979H78.324C78.7362 63.4979 79.1075 63.4472 79.4379 63.3493C79.7649 63.2514 80.0442 63.1096 80.2725 62.9272C80.4973 62.7449 80.671 62.5221 80.7903 62.2655C80.9095 62.0088 80.9674 61.7185 80.9674 61.3943C80.9674 60.7359 80.7494 60.2463 80.3168 59.9289C79.8841 59.6116 79.2505 59.4495 78.416 59.4495H76.7059V63.4979Z" fill="#32343A"/>
<path d="M95.1926 60.0435C95.1518 60.1178 95.0973 60.1549 95.0223 60.1549C94.9644 60.1549 94.8929 60.1144 94.8009 60.0334C94.7089 59.9523 94.5897 59.8645 94.433 59.7632C94.2797 59.6653 94.0855 59.5742 93.8539 59.4931C93.6223 59.4087 93.3361 59.3682 92.9989 59.3682C92.6617 59.3682 92.3619 59.4155 92.103 59.5134C91.8441 59.6113 91.6295 59.7396 91.4558 59.905C91.2821 60.0705 91.1492 60.263 91.0606 60.4824C90.9687 60.7019 90.9244 60.9315 90.9244 61.1712C90.9244 61.4852 90.9925 61.7452 91.1254 61.9512C91.2582 62.1571 91.4353 62.3293 91.6568 62.4745C91.8782 62.6197 92.1268 62.7413 92.4062 62.8392C92.6855 62.9371 92.9716 63.035 93.268 63.1296C93.5644 63.2241 93.8505 63.3321 94.1298 63.4469C94.4092 63.5617 94.6578 63.7069 94.8792 63.8825C95.1007 64.0581 95.2778 64.2708 95.4106 64.5274C95.5435 64.784 95.6116 65.1014 95.6116 65.4796C95.6116 65.8577 95.5435 66.2325 95.4106 66.5769C95.2778 66.9179 95.0802 67.2184 94.8247 67.4717C94.5693 67.7249 94.2559 67.9241 93.888 68.0727C93.5167 68.2179 93.0943 68.2921 92.6208 68.2921C92.0042 68.2921 91.4728 68.1841 91.03 67.968C90.5837 67.7519 90.1954 67.4548 89.8616 67.08L90.0455 66.793C90.1 66.7288 90.1613 66.6951 90.2295 66.6951C90.2703 66.6951 90.318 66.7221 90.3828 66.7727C90.4441 66.8268 90.519 66.8909 90.6076 66.9652C90.6961 67.0429 90.8018 67.1239 90.9244 67.2151C91.047 67.3028 91.1901 67.3873 91.3536 67.4649C91.5171 67.5426 91.7045 67.6067 91.9156 67.6574C92.1268 67.7114 92.3687 67.735 92.6344 67.735C93.0057 67.735 93.3361 67.681 93.6257 67.5696C93.9152 67.4582 94.1605 67.3062 94.3615 67.1138C94.5625 66.9213 94.7157 66.6951 94.8213 66.4283C94.9269 66.165 94.9814 65.8814 94.9814 65.5809C94.9814 65.2533 94.9133 64.9832 94.7805 64.7705C94.6476 64.5578 94.4705 64.3822 94.2491 64.2404C94.0276 64.0986 93.779 63.9804 93.4996 63.8825C93.2203 63.7846 92.9342 63.6934 92.6378 63.6023C92.3415 63.5111 92.0553 63.4064 91.776 63.295C91.4967 63.1802 91.248 63.035 91.0266 62.8594C90.8052 62.6839 90.628 62.461 90.4952 62.1977C90.3623 61.9343 90.2942 61.6034 90.2942 61.205C90.2942 60.8943 90.3521 60.5972 90.4713 60.3068C90.5906 60.0198 90.7643 59.7632 90.9925 59.5438C91.2207 59.3243 91.5035 59.1453 91.8407 59.0137C92.1779 58.882 92.5629 58.8145 92.9921 58.8145C93.4758 58.8145 93.9118 58.8921 94.2968 59.044C94.6817 59.196 95.0325 59.429 95.3493 59.7464L95.1892 60.0469L95.1926 60.0435Z" fill="#32343A"/>
<path d="M95.6525 23.1865H49.9995V24.1387H95.6525V23.1865Z" fill="#32343A"/>
<path d="M27.7624 23.1865H0V24.1387H27.7624V23.1865Z" fill="#32343A"/>
<path d="M48.6881 8.07637C48.6506 8.07637 46.9542 6.51983 46.7873 6.11803C46.6204 5.71286 46.9951 5.19288 46.9951 5.19288L46.5557 4.76745L49.4477 3.78153C49.4477 3.78153 50.0268 3.79166 50.1869 3.75114C50.3504 3.70725 50.8341 3.38648 51.2906 3.16364C51.7437 2.94417 52.8133 2.5525 52.8133 2.5525L53.0245 2.22499H53.1812L53.222 2.01565C53.222 2.01565 53.1233 2.02577 53.0824 1.83669C52.9836 1.45178 53.1198 0.0640586 54.4858 -9.38678e-05C55.8552 -0.0642464 55.8688 1.55307 55.8688 1.55307C55.8688 1.55307 56.2333 1.63411 56.3968 1.72189C56.5603 1.80631 56.5263 1.83669 56.4377 1.88734C56.3014 1.95149 55.6713 1.93123 55.6713 1.93123C55.6713 1.93123 55.7837 2.16421 55.7735 2.20135C55.7632 2.23849 55.5895 2.29589 55.5895 2.29589V2.52549L55.426 2.60315C55.426 2.60315 55.5384 2.67405 55.5418 2.71795C55.5418 2.76522 55.4601 2.80236 55.4601 2.80236C55.4601 2.80236 55.4498 2.97456 55.4158 3.0252C55.3613 3.10624 54.7209 3.1265 54.7209 3.1265L54.3291 3.90308C54.3291 3.90308 54.4279 4.26774 54.7004 4.41292C54.8435 4.49396 55.1671 4.66953 55.4464 4.8181H55.4771C57.1939 4.21034 59.2208 3.58569 59.8952 3.40337C61.0398 3.0826 62.6987 3.67686 63.036 3.58569C63.3732 3.49791 64.2487 3.56881 64.2487 3.56881L65.3898 2.79898L65.2604 3.26155L65.8871 3.17039C65.8871 3.17039 64.6574 4.04489 64.7937 4.28124C64.9333 4.51759 65.2774 5.50014 65.5329 5.98972C65.7918 6.48606 66.6093 9.42695 66.5786 9.71395C66.548 10.0043 66.1426 10.6323 66.0745 10.6796C66.003 10.7303 65.727 10.791 65.5397 10.7505C65.3523 10.71 64.8448 10.3555 64.8243 10.3217C64.8073 10.2846 64.8243 9.98406 64.7869 9.92329C64.7358 9.83212 64.4122 9.03866 63.4515 8.63348C62.4875 8.22493 62.1094 7.28628 61.9289 7.18836C61.7449 7.09045 61.0125 6.8676 60.5527 7.10395C60.0894 7.33693 58.812 9.07917 58.812 9.07917C58.812 9.07917 58.7779 9.61941 58.7132 9.87264C58.628 10.2035 58.4577 11.2536 58.5735 11.2401C58.6894 11.2333 60.1677 11.1185 60.5118 11.1591C60.7741 11.1895 60.9819 11.3684 61.067 11.4967C61.1352 11.598 61.3293 12.2665 61.1863 12.4117C61.033 12.5772 59.5342 15.0521 59.4183 15.1196C59.3025 15.1905 56.9044 15.2682 56.8499 15.2615C56.7954 15.2547 56.4343 15.356 56.4105 14.9002C56.3866 14.4444 57.3847 13.9514 57.5959 13.9716C57.8105 13.9919 58.0353 14.2958 58.3181 14.2688C58.6042 14.2418 59.8884 12.5367 59.7317 12.4961C59.575 12.4522 58.3453 13.3301 58.2022 13.4213C58.0558 13.5091 57.8854 13.4112 57.5652 13.6137C57.2416 13.8163 56.2401 14.3262 56.2401 14.3262L55.3647 14.8124C55.3647 14.8124 54.4484 15.2952 53.9885 15.464C53.5286 15.6396 52.3602 16.1056 51.1782 16.2474C50.3879 16.3453 46.1264 16.2204 45.704 16.2406C45.2782 16.2575 44.7775 16.4432 44.6481 16.8923C44.5186 17.3447 43.8918 19.5225 43.5171 19.8433C43.1424 20.1641 40.6762 22.2271 40.4105 22.4837C40.1448 22.7369 39.334 23.5169 39.2148 23.9119C39.099 24.3036 39.5214 27.1128 39.5214 27.3255C39.5214 27.5382 38.8094 28.9597 38.7038 29.0846C38.5948 29.2096 37.5967 29.9355 37.5286 29.9186C37.4605 29.9051 37.3208 28.6018 37.3413 28.5444C37.3617 28.4836 38.0975 27.994 38.0328 27.9062C37.968 27.8185 37.6274 27.9062 38.2099 27.3323C38.7958 26.7684 37.6342 22.46 37.6138 22.2507C37.5967 22.0414 38.7243 21.3661 39.2352 21.0318C39.7462 20.6975 39.8995 19.8804 39.8075 19.5462C39.7224 19.2085 38.6391 17.3819 38.3632 16.4871C38.0839 15.5991 38.9218 13.6273 38.9218 13.6273C38.9218 13.6273 38.7243 13.5665 38.5131 13.5867C38.3019 13.6036 37.4809 14.0628 36.9904 14.8158C36.5033 15.5687 36.9121 17.4832 36.9121 17.4832C36.9121 17.4832 37.1573 18.9924 37.1198 19.2997C37.0858 19.6103 37.0279 19.7488 36.9189 19.9851C36.8167 20.2147 36.7383 20.3194 36.6736 20.3734C36.6566 17.9694 36.132 16.9767 36.1388 17.024C36.1626 17.2704 36.5782 19.4212 36.476 20.4409C36.3432 21.7611 34.9295 22.2541 35.0045 22.119C35.3042 21.5855 35.4098 20.9001 35.4098 20.9001C35.4098 20.9001 35.42 20.8326 35.3962 20.8866C35.3247 21.0487 35.2429 21.2006 35.1407 21.3526C33.9621 23.0172 31.7513 21.4404 32.3917 21.4539C33.0287 21.4741 33.7986 20.3903 34.0609 19.7488C34.2789 19.2322 34.2789 18.9654 34.0507 17.7634C33.8224 16.585 33.9178 16.136 34.2891 15.1804C34.6638 14.2283 35.9548 13.4213 36.7554 13.114C37.5559 12.8135 39.8961 12.6717 39.8961 12.6717C39.8961 12.6717 40.9555 12.0606 41.3608 11.8681C41.7662 11.679 42.4645 11.517 42.938 11.4359C43.4115 11.3549 46.123 10.4331 46.123 10.4331C46.123 10.4331 45.9425 10.2002 45.8505 9.9503C45.7722 9.74096 45.7415 9.26826 45.7415 9.26826C45.7415 9.26826 45.4452 8.95087 45.3055 8.92386C45.1692 8.9036 45.2203 8.62673 45.4929 8.66049C45.7654 8.69426 47.6014 8.73478 48.0443 8.53894C48.1703 8.48492 48.3849 8.34649 48.6302 8.17091C48.654 8.1574 48.6779 8.14052 48.7017 8.12364L48.6949 8.08988L48.6881 8.07637Z" fill="#8F6D5F"/>
</g>
<defs>
<clipPath id="clip0_4680_4565">
<rect width="96" height="68.2887" fill="white"/>
</clipPath>
</defs>
</svg>
