<svg width="96" height="69" viewBox="0 0 96 69" fill="none" xmlns="http://www.w3.org/2000/svg">
<g clip-path="url(#clip0_4680_4098)">
<path d="M2.24139 47.5777C0.572242 46.19 0.132812 44.3633 0.132812 42.8068C0.132812 41.7027 0.497301 39.8018 2.10854 38.3769C3.33486 37.3133 4.9461 36.665 7.46004 36.665C8.51604 36.665 9.14963 36.7427 9.91608 36.8372C10.5497 36.9318 11.1049 37.0466 11.6057 37.104C11.7964 37.1242 11.8543 37.1985 11.8543 37.2931C11.8543 37.4247 11.8169 37.6172 11.776 38.1878C11.7385 38.7213 11.7385 39.6127 11.7181 39.9368C11.6976 40.1664 11.6397 40.3352 11.4864 40.3352C11.3536 40.3352 11.3127 40.2036 11.3127 39.9942C11.2923 39.481 11.0811 38.9104 10.6621 38.4917C10.0864 37.9413 8.95547 37.5395 7.40213 37.5395C5.8488 37.5395 4.98697 37.8063 4.21712 38.4512C2.97037 39.5148 2.66379 41.0747 2.66379 42.6515C2.66379 46.4905 5.65463 48.3172 7.91991 48.3172C9.41533 48.3172 10.2397 48.2024 10.9108 47.4629C11.1969 47.1388 11.4285 46.683 11.4864 46.3791C11.5239 46.1326 11.5648 46.0549 11.6976 46.0549C11.8135 46.0549 11.8884 46.2069 11.8884 46.3386C11.8884 46.5276 11.6976 47.9356 11.5239 48.486C11.4456 48.7696 11.3706 48.8473 11.0811 48.9621C10.41 49.2288 9.12579 49.3233 8.03232 49.3233C5.72958 49.3233 3.77429 48.8473 2.24139 47.5743V47.5777Z" fill="white"/>
<path d="M17.7579 44.424C17.7579 46.4972 17.7579 47.5236 18.1224 47.8275C18.4086 48.0739 19.0626 48.1685 20.3673 48.1685C21.27 48.1685 21.9206 48.1482 22.343 47.7127C22.5542 47.5033 22.7279 47.0475 22.7654 46.7436C22.7858 46.5917 22.8233 46.4972 22.9562 46.4972C23.072 46.4972 23.1094 46.6693 23.1094 46.8584C23.1094 47.0475 22.9936 48.2462 22.8608 48.7222C22.745 49.0835 22.67 49.1578 21.7878 49.1578C20.5785 49.1578 19.6008 49.1375 18.756 49.1004C17.9112 49.0801 17.2027 49.0632 16.5112 49.0632C16.3204 49.0632 15.9559 49.0835 15.5506 49.0835C15.1486 49.1038 14.7262 49.1206 14.3822 49.1206C14.171 49.1206 14.0552 49.0633 14.0552 48.9485C14.0552 48.8742 14.1131 48.7763 14.3243 48.7763C14.5729 48.7763 14.7637 48.756 14.9204 48.7189C15.2644 48.6446 15.3598 48.3373 15.4177 47.8646C15.4961 47.1792 15.4961 45.9063 15.4961 44.424V41.5709C15.4961 39.1196 15.4961 38.6604 15.4756 38.1506C15.4382 37.6002 15.2849 37.428 14.7467 37.2761C14.6138 37.2389 14.4026 37.2187 14.1914 37.2187C14.0007 37.2187 13.9053 37.1613 13.9053 37.0465C13.9053 36.9317 14.0211 36.8945 14.2698 36.8945C15.0566 36.8945 16.1297 36.9317 16.5895 36.9317C16.9915 36.9317 18.3745 36.8945 19.0251 36.8945C19.2738 36.8945 19.3896 36.9317 19.3896 37.0465C19.3896 37.1613 19.2942 37.2187 19.083 37.2187C18.8923 37.2187 18.6232 37.2389 18.4324 37.2761C17.9726 37.3537 17.8363 37.58 17.7988 38.1506C17.7614 38.6638 17.7614 39.1196 17.7614 41.5709V44.424H17.7579Z" fill="white"/>
<path d="M26.0829 41.5705C26.0829 39.1192 26.0829 38.66 26.0624 38.1501C26.025 37.5998 25.8512 37.4073 25.4868 37.2959C25.296 37.2385 25.0848 37.2182 24.8736 37.2182C24.6999 37.2182 24.6045 37.1811 24.6045 37.0291C24.6045 36.9346 24.7373 36.8975 25.0065 36.8975C25.64 36.8975 26.7914 36.9346 27.2683 36.9346C27.6907 36.9346 28.7842 36.8975 29.4348 36.8975C29.646 36.8975 29.7789 36.9346 29.7789 37.0291C29.7789 37.1811 29.6835 37.2182 29.5097 37.2182C29.336 37.2182 29.2032 37.2385 29.0124 37.2756C28.5525 37.3533 28.4163 37.5795 28.3788 38.1501C28.3413 38.6633 28.3413 39.1192 28.3413 41.5705V44.4236C28.3413 45.9835 28.3413 47.2767 28.4197 47.9587C28.4776 48.3943 28.5934 48.6441 29.0908 48.7184C29.3224 48.7555 29.7039 48.7758 29.9526 48.7758C30.1433 48.7758 30.2217 48.8703 30.2217 48.948C30.2217 49.0628 30.0888 49.1202 29.8947 49.1202C28.7808 49.1202 27.6328 49.0628 27.1695 49.0628C26.7846 49.0628 25.6366 49.1202 24.9622 49.1202C24.751 49.1202 24.6351 49.0628 24.6351 48.948C24.6351 48.8737 24.6931 48.7758 24.9043 48.7758C25.1529 48.7758 25.3437 48.7555 25.5004 48.7184C25.8444 48.6441 25.9398 48.4145 25.9977 47.9384C26.0761 47.2733 26.0761 45.9801 26.0761 44.4202V41.5671L26.0829 41.5705Z" fill="white"/>
<path d="M36.1526 44.4817C36.1526 46.0416 36.173 47.1829 36.2479 47.8649C36.3059 48.341 36.4217 48.6449 36.919 48.7191C37.1506 48.7563 37.5151 48.7765 37.7434 48.7765C37.9546 48.7765 38.0295 48.8711 38.0295 48.9487C38.0295 49.0635 37.9137 49.1209 37.665 49.1209C36.592 49.1209 35.4031 49.0635 34.9603 49.0635C34.5175 49.0635 33.4444 49.1209 32.8109 49.1209C32.5792 49.1209 32.4668 49.0838 32.4668 48.9487C32.4668 48.8745 32.5247 48.7765 32.7155 48.7765C32.9641 48.7765 33.1549 48.7563 33.3116 48.7191C33.6556 48.6449 33.751 48.3376 33.8089 47.8649C33.8873 47.1795 33.8873 45.9842 33.8873 44.4243V41.5712C33.8873 39.1199 33.8873 38.6607 33.8668 38.1509C33.8294 37.6005 33.6761 37.408 33.1379 37.2764C33.005 37.2392 32.7155 37.219 32.4668 37.219C32.3135 37.219 32.1807 37.1616 32.1807 37.0468C32.1807 36.932 32.3135 36.8948 32.5826 36.8948C33.4444 36.8948 34.5209 36.932 34.9978 36.932C35.6484 36.932 39.3887 36.9522 39.794 36.932C40.1006 36.9117 40.3118 36.8948 40.4855 36.8543C40.5809 36.834 40.6593 36.7598 40.7546 36.7598C40.8126 36.7598 40.8705 36.8374 40.8705 36.9117C40.8705 37.0265 40.7921 37.2156 40.7376 37.6343C40.7172 37.8065 40.6797 38.7552 40.6593 38.9477C40.6388 39.0794 40.6014 39.2718 40.4855 39.2718C40.3697 39.2718 40.2743 39.1942 40.2743 39.0051C40.2743 38.8734 40.2948 38.6236 40.179 38.3973C40.0631 38.1677 39.7395 37.9213 39.1059 37.9044L36.3059 37.847C36.2105 37.847 36.1526 37.8841 36.1526 38.0732V41.9899C36.1526 42.0844 36.173 42.1418 36.2684 42.1418L38.629 42.1216C38.9152 42.1216 39.1468 42.1216 39.3955 42.1013C39.7021 42.081 39.9507 42.0236 40.104 41.8177C40.1994 41.7231 40.2369 41.6455 40.3357 41.6455C40.3936 41.6455 40.431 41.7029 40.431 41.7974C40.431 41.892 40.3527 42.3309 40.2982 42.8441C40.2607 43.1683 40.2403 43.9077 40.2403 44.0225C40.2403 44.1542 40.2198 44.3838 40.0495 44.3838C39.9541 44.3838 39.8962 44.269 39.8962 44.1542C39.8962 44.0394 39.8588 43.8503 39.7804 43.6612C39.7021 43.4316 39.4943 43.1109 38.9765 43.0703C38.5541 43.0332 36.5613 43.0129 36.2718 43.0129C36.1934 43.0129 36.156 43.0332 36.156 43.1446V44.4749L36.1526 44.4817Z" fill="white"/>
<path d="M46.6443 44.4817C46.6443 46.0416 46.6647 47.1829 46.7396 47.8649C46.7976 48.341 46.9134 48.6449 47.4107 48.7191C47.6423 48.7563 48.0068 48.7765 48.2351 48.7765C48.4463 48.7765 48.5212 48.8711 48.5212 48.9487C48.5212 49.0635 48.4054 49.1209 48.1567 49.1209C47.0837 49.1209 45.8948 49.0635 45.452 49.0635C45.0092 49.0635 43.9362 49.1209 43.3026 49.1209C43.0709 49.1209 42.9585 49.0838 42.9585 48.9487C42.9585 48.8745 43.0164 48.7765 43.2072 48.7765C43.4558 48.7765 43.6466 48.7563 43.8033 48.7191C44.1473 48.6449 44.2427 48.3376 44.3006 47.8649C44.379 47.1795 44.379 45.9842 44.379 44.4243V41.5712C44.379 39.1199 44.379 38.6607 44.3585 38.1509C44.3211 37.6005 44.1678 37.408 43.6296 37.2764C43.4967 37.2392 43.2072 37.219 42.9585 37.219C42.8052 37.219 42.6724 37.1616 42.6724 37.0468C42.6724 36.932 42.8052 36.8948 43.0743 36.8948C43.9361 36.8948 45.0126 36.932 45.4895 36.932C46.1401 36.932 49.8804 36.9522 50.2857 36.932C50.5923 36.9117 50.8035 36.8948 50.9772 36.8543C51.0726 36.834 51.151 36.7598 51.2463 36.7598C51.3043 36.7598 51.3622 36.8374 51.3622 36.9117C51.3622 37.0265 51.2872 37.2156 51.2293 37.6343C51.2089 37.8065 51.1714 38.7552 51.151 38.9477C51.1305 39.0794 51.0931 39.2718 50.9772 39.2718C50.8614 39.2718 50.766 39.1942 50.766 39.0051C50.766 38.8734 50.7865 38.6236 50.6707 38.3973C50.5548 38.1677 50.2278 37.9213 49.5976 37.9044L46.7976 37.847C46.7022 37.847 46.6443 37.8841 46.6443 38.0732V41.9899C46.6443 42.0844 46.6647 42.1418 46.7601 42.1418L49.1173 42.1216C49.4069 42.1216 49.6351 42.1216 49.8838 42.1013C50.1904 42.081 50.439 42.0236 50.5923 41.8177C50.6877 41.7231 50.7252 41.6455 50.8239 41.6455C50.8819 41.6455 50.9193 41.7029 50.9193 41.7974C50.9193 41.892 50.8444 42.3309 50.7865 42.8441C50.749 43.1683 50.7286 43.9077 50.7286 44.0225C50.7286 44.1542 50.7081 44.3838 50.5378 44.3838C50.4424 44.3838 50.3845 44.269 50.3845 44.1542C50.3845 44.0394 50.3471 43.8503 50.2687 43.6612C50.1938 43.4316 49.9826 43.1109 49.4614 43.0703C49.039 43.0332 47.0462 43.0129 46.7567 43.0129C46.6783 43.0129 46.6409 43.0332 46.6409 43.1446V44.4749L46.6443 44.4817Z" fill="white"/>
<path d="M54.3392 48.911C54.0701 48.7962 54.0122 48.7219 54.0122 48.3606C54.0122 47.4861 54.0906 46.4799 54.1076 46.2132C54.1076 45.9667 54.1859 45.7945 54.3188 45.7945C54.4721 45.7945 54.4925 45.9464 54.4925 46.0612C54.4925 46.2706 54.5504 46.6116 54.6458 46.8986C55.0103 48.0972 56.2775 48.4957 57.3301 48.4957C58.788 48.4957 59.6703 47.584 59.6703 46.4428C59.6703 45.7405 59.4966 45.0348 58.0011 44.1603L57.0235 43.5897C55.0273 42.4316 54.3767 41.3477 54.3767 39.9195C54.3767 37.9409 56.2945 36.668 58.6347 36.668C59.7282 36.668 60.59 36.8199 61.0329 36.9347C61.1861 36.9718 61.2645 37.0292 61.2645 37.144C61.2645 37.3534 61.2066 37.8092 61.2066 39.0821C61.2066 39.4232 61.1282 39.5953 60.9954 39.5953C60.8796 39.5953 60.8217 39.5008 60.8217 39.3117C60.8217 39.1598 60.7467 38.6668 60.3822 38.2481C60.1336 37.9443 59.5953 37.4884 58.5019 37.4884C57.2926 37.4884 56.1991 38.1165 56.1991 39.2172C56.1991 39.9397 56.4682 40.5104 57.9841 41.3477L58.6756 41.7259C60.9 42.9414 61.5915 44.1772 61.5915 45.6426C61.5915 46.8412 61.1316 47.8103 59.9053 48.6645C59.098 49.2351 57.9875 49.3297 57.0848 49.3297C56.1072 49.3297 55.0716 49.2351 54.3426 48.911H54.3392Z" fill="white"/>
<path d="M65.2333 41.5705C65.2333 39.1192 65.2333 38.66 65.2128 38.1501C65.1754 37.5998 65.0016 37.4073 64.6371 37.2959C64.4464 37.2385 64.2352 37.2182 64.024 37.2182C63.8503 37.2182 63.7549 37.1811 63.7549 37.0291C63.7549 36.9346 63.8877 36.8975 64.1568 36.8975C64.7904 36.8975 65.9418 36.9346 66.4187 36.9346C66.8411 36.9346 67.9346 36.8975 68.5852 36.8975C68.7964 36.8975 68.9293 36.9346 68.9293 37.0291C68.9293 37.1811 68.8339 37.2182 68.6601 37.2182C68.4864 37.2182 68.3536 37.2385 68.1628 37.2756C67.7029 37.3533 67.5667 37.5795 67.5292 38.1501C67.4917 38.6633 67.4917 39.1192 67.4917 41.5705V44.4236C67.4917 45.9835 67.4917 47.2767 67.5701 47.9587C67.628 48.3943 67.7438 48.6441 68.2411 48.7184C68.4728 48.7555 68.8543 48.7758 69.103 48.7758C69.2937 48.7758 69.3721 48.8703 69.3721 48.948C69.3721 49.0628 69.2392 49.1202 69.0451 49.1202C67.9312 49.1202 66.7832 49.0628 66.3233 49.0628C65.9384 49.0628 64.7904 49.1202 64.116 49.1202C63.9048 49.1202 63.7889 49.0628 63.7889 48.948C63.7889 48.8737 63.8469 48.7758 64.0581 48.7758C64.3067 48.7758 64.4975 48.7555 64.6542 48.7184C64.9982 48.6441 65.0936 48.4145 65.1515 47.9384C65.2299 47.2733 65.2299 45.9801 65.2299 44.4202V41.5671L65.2333 41.5705Z" fill="white"/>
<path d="M73.0406 41.5709C73.0406 39.1196 73.0406 38.6604 73.0202 38.1506C72.9827 37.6002 72.8294 37.428 72.2912 37.2761C72.1583 37.2389 71.8688 37.2187 71.6201 37.2187C71.4464 37.2187 71.334 37.1613 71.334 37.0465C71.334 36.9317 71.4668 36.8945 71.7189 36.8945C72.6012 36.8945 73.6742 36.9317 74.1545 36.9317C74.6723 36.9317 75.8816 36.8945 76.8967 36.8945C79.0053 36.8945 81.8462 36.8945 83.6857 38.7381C84.5305 39.5754 85.2765 40.926 85.2765 42.8438C85.2765 44.8798 84.3942 46.4195 83.4336 47.348C82.6672 48.1077 80.8822 49.249 77.7755 49.249C77.1624 49.249 76.4334 49.1916 75.7623 49.1544C75.0913 49.097 74.4781 49.0599 74.0557 49.0599C73.865 49.0599 73.5005 49.0801 73.0951 49.0801C72.6931 49.1004 72.2707 49.1173 71.9267 49.1173C71.7155 49.1173 71.5997 49.0599 71.5997 48.9451C71.5997 48.8708 71.6576 48.7729 71.8688 48.7729C72.1175 48.7729 72.3082 48.7526 72.4649 48.7155C72.809 48.6412 72.9043 48.3339 72.9623 47.8612C73.0406 47.1758 73.0406 45.9029 73.0406 44.4206V41.5675V41.5709ZM75.3025 43.3571C75.3025 45.0689 75.3229 46.3047 75.3399 46.6255C75.3604 47.0239 75.3979 47.5945 75.5307 47.7667C75.7419 48.0706 76.413 48.4116 77.7381 48.4116C79.271 48.4116 80.4053 48.1449 81.4204 47.3075C82.5139 46.4127 82.8579 44.9676 82.8579 43.2963C82.8579 41.2434 82.0336 39.9131 81.2842 39.2648C79.7308 37.8973 77.888 37.7251 76.5663 37.7251C76.2222 37.7251 75.6636 37.7623 75.5307 37.8399C75.3774 37.8973 75.3195 37.9716 75.3195 38.1641C75.2991 38.7144 75.2991 40.0448 75.2991 41.3211V43.3537L75.3025 43.3571Z" fill="white"/>
<path d="M88.7887 41.5712C88.7887 39.1199 88.7887 38.6607 88.7682 38.1509C88.7307 37.6005 88.5775 37.4283 88.0392 37.2764C87.9064 37.2392 87.6168 37.219 87.3682 37.219C87.1944 37.219 87.082 37.1616 87.082 37.0468C87.082 36.932 87.2149 36.8948 87.4636 36.8948C88.3458 36.8948 89.4188 36.932 89.8991 36.932C90.4374 36.932 94.1776 36.9522 94.5012 36.932C94.8078 36.9117 95.0769 36.8543 95.2098 36.8374C95.3052 36.8172 95.4005 36.7598 95.4789 36.7598C95.5743 36.7598 95.5947 36.8374 95.5947 36.9117C95.5947 37.0265 95.4993 37.2156 95.4618 37.9584C95.4414 38.1306 95.4039 38.8329 95.3665 39.022C95.346 39.0963 95.3086 39.2887 95.1757 39.2887C95.0599 39.2887 95.0429 39.2144 95.0429 39.0794C95.0429 38.9646 95.0224 38.681 94.927 38.4885C94.7942 38.2049 94.6579 37.9753 93.8131 37.8976C93.527 37.8605 91.5104 37.82 91.1663 37.82C91.0914 37.82 91.0505 37.8774 91.0505 37.9719V41.9629C91.0505 42.0574 91.071 42.1351 91.1663 42.1351C91.5513 42.1351 93.7348 42.1351 94.1197 42.0979C94.5217 42.0608 94.7703 42.0203 94.9236 41.8514C95.0565 41.7366 95.1144 41.6421 95.1927 41.6421C95.2711 41.6421 95.3256 41.7164 95.3256 41.8143C95.3256 41.9122 95.2881 42.1756 95.1927 42.9927C95.1553 43.3168 95.1178 43.9617 95.1178 44.0765C95.1178 44.2082 95.0974 44.4378 94.9441 44.4378C94.8283 44.4378 94.7908 44.3804 94.7908 44.3061C94.7703 44.1339 94.7703 43.9246 94.7329 43.7152C94.6375 43.3911 94.4263 43.1446 93.7927 43.0872C93.4861 43.0501 91.5683 43.0129 91.1459 43.0129C91.071 43.0129 91.0505 43.0872 91.0505 43.1851V44.4783C91.0505 45.0287 91.0301 46.3995 91.0505 46.8722C91.088 47.9763 91.6058 48.2228 93.3328 48.2228C93.7757 48.2228 94.4842 48.2025 94.9236 48.0135C95.346 47.8244 95.5368 47.48 95.6526 46.8148C95.6901 46.6426 95.7275 46.5683 95.8434 46.5683C95.9762 46.5683 95.9967 46.7777 95.9967 46.9499C95.9967 47.3112 95.8638 48.4153 95.765 48.736C95.6492 49.1547 95.4959 49.1547 94.8623 49.1547C93.5951 49.1547 92.58 49.1344 91.7556 49.0973C90.9313 49.077 90.2977 49.0602 89.8004 49.0602C89.6096 49.0602 89.2451 49.0804 88.8397 49.0804C88.4378 49.1007 88.0154 49.1176 87.6713 49.1176C87.4601 49.1176 87.3443 49.0602 87.3443 48.9454C87.3443 48.8711 87.4022 48.7732 87.6134 48.7732C87.8621 48.7732 88.0529 48.7529 88.2096 48.7158C88.5536 48.6415 88.649 48.3342 88.7069 47.8615C88.7852 47.1761 88.7853 45.9032 88.7853 44.4209V41.5678L88.7887 41.5712Z" fill="white"/>
<path d="M0.180664 68.1844V58.916H2.86834C3.39974 58.916 3.86301 58.97 4.25475 59.0747C4.64649 59.1794 4.9701 59.3347 5.22559 59.5373C5.48107 59.7399 5.67183 59.9863 5.79446 60.2801C5.91709 60.5738 5.97841 60.9047 5.97841 61.2761C5.97841 61.5193 5.93412 61.7556 5.84896 61.9818C5.7638 62.2081 5.63776 62.4174 5.47426 62.6098C5.31075 62.8023 5.11317 62.9678 4.87813 63.1096C4.64309 63.2514 4.37398 63.3594 4.07421 63.4337C4.81 63.5417 5.37547 63.7849 5.77061 64.163C6.16576 64.5412 6.36333 65.0341 6.36333 65.6453C6.36333 66.0369 6.2918 66.3915 6.15213 66.7055C6.01247 67.0195 5.80468 67.2862 5.53898 67.5057C5.26987 67.7252 4.93945 67.8906 4.54771 68.0054C4.15597 68.1202 3.70972 68.1776 3.21239 68.1776H0.180664V68.1844ZM0.86195 63.2547H2.88537C3.31799 63.2547 3.68588 63.2007 3.99246 63.0893C4.29904 62.9813 4.55111 62.8361 4.74528 62.6571C4.93945 62.4782 5.08592 62.2756 5.1779 62.0494C5.26987 61.8231 5.31756 61.5902 5.31756 61.3504C5.31756 60.7258 5.11999 60.2531 4.71803 59.9323C4.31607 59.6116 3.70291 59.4529 2.87174 59.4529H0.86195V63.2581V63.2547ZM0.86195 63.7443V67.6475H3.20898C4.02652 67.6475 4.6499 67.4719 5.06889 67.1208C5.48788 66.7696 5.69908 66.2733 5.69908 65.6385C5.69908 65.3448 5.64458 65.0814 5.53216 64.8484C5.41975 64.6155 5.25965 64.4162 5.04505 64.2508C4.83385 64.0887 4.57496 63.9604 4.26497 63.8726C3.95499 63.7849 3.60753 63.741 3.21579 63.741H0.86195V63.7443Z" fill="white"/>
<path d="M15.8195 63.9942V68.1844H15.1382V58.916H17.5295C18.6025 58.916 19.4098 59.122 19.9447 59.5339C20.4795 59.9458 20.7486 60.5536 20.7486 61.3504C20.7486 61.705 20.6873 62.0257 20.5612 62.3195C20.4352 62.6132 20.258 62.8698 20.0264 63.0893C19.7948 63.3088 19.5154 63.4911 19.1884 63.6329C18.8614 63.7747 18.4935 63.8693 18.0882 63.9098C18.1938 63.9739 18.2891 64.0617 18.3709 64.1731L21.59 68.181H21.0075C20.9325 68.181 20.8712 68.1675 20.8201 68.1438C20.769 68.1202 20.7213 68.0763 20.677 68.0088L17.676 64.2508C17.6419 64.2035 17.6044 64.1596 17.567 64.1259C17.5295 64.0921 17.4886 64.0651 17.4409 64.0448C17.3932 64.0246 17.3387 64.0111 17.2774 64.0009C17.2127 63.9908 17.1344 63.9874 17.0424 63.9874H15.8195V63.9942ZM15.8195 63.4979H17.4375C17.8531 63.4979 18.221 63.4472 18.5514 63.3493C18.8818 63.2514 19.1578 63.1096 19.3826 62.9272C19.6108 62.7449 19.7811 62.5221 19.9004 62.2655C20.0196 62.0088 20.0775 61.7185 20.0775 61.3943C20.0775 60.7359 19.8595 60.2463 19.4269 59.9289C18.9943 59.6116 18.3607 59.4495 17.5261 59.4495H15.8161V63.4979H15.8195Z" fill="white"/>
<path d="M37.9952 63.5482C37.9952 64.264 37.8862 64.9123 37.6716 65.4964C37.457 66.0806 37.1504 66.5769 36.7587 66.9888C36.3669 67.4008 35.8968 67.7215 35.3484 67.9444C34.8 68.1706 34.197 68.282 33.5362 68.282C32.8753 68.282 32.2724 68.1706 31.7274 67.9444C31.1823 67.7181 30.7123 67.4008 30.3205 66.9888C29.9288 66.5769 29.6256 66.0772 29.4076 65.4964C29.193 64.9123 29.084 64.264 29.084 63.5482C29.084 62.8324 29.193 62.1909 29.4076 61.6068C29.6222 61.0227 29.9288 60.5263 30.3205 60.1144C30.7123 59.7025 31.1823 59.3817 31.7274 59.1555C32.2724 58.9293 32.8753 58.8145 33.5362 58.8145C34.197 58.8145 34.8 58.9259 35.3484 59.1521C35.8968 59.3783 36.3669 59.6957 36.7587 60.111C37.1504 60.5263 37.4536 61.026 37.6716 61.6068C37.8862 62.1909 37.9952 62.8358 37.9952 63.5482ZM37.2935 63.5482C37.2935 62.9033 37.2015 62.3226 37.021 61.806C36.8404 61.2894 36.5849 60.8538 36.2545 60.4959C35.9241 60.138 35.529 59.8645 35.0657 59.6721C34.6024 59.483 34.0914 59.3884 33.5328 59.3884C32.9741 59.3884 32.47 59.483 32.0067 59.6721C31.5434 59.8611 31.1483 60.138 30.8145 60.4959C30.4806 60.8538 30.2251 61.2894 30.0412 61.806C29.8572 62.3226 29.7687 62.9033 29.7687 63.5482C29.7687 64.1931 29.8607 64.7806 30.0412 65.2939C30.2251 65.8071 30.4806 66.2426 30.8145 66.6005C31.1483 66.9584 31.5434 67.2319 32.0067 67.4176C32.47 67.6067 32.9775 67.6979 33.5328 67.6979C34.088 67.6979 34.6024 67.6033 35.0657 67.4176C35.529 67.2286 35.9241 66.9584 36.2545 66.6005C36.5849 66.2426 36.8404 65.8071 37.021 65.2939C37.2015 64.7806 37.2935 64.1999 37.2935 63.5482Z" fill="white"/>
<path d="M47.4381 63.1939H47.9933C48.0785 63.1939 48.15 63.1939 48.2114 63.1838C48.2727 63.177 48.3306 63.1669 48.3783 63.1466C48.4294 63.1297 48.4736 63.1027 48.5179 63.0723C48.5588 63.0386 48.6065 62.9981 48.6542 62.9508L52.4251 59.105C52.4898 59.0307 52.5546 58.9801 52.6193 58.9531C52.684 58.9261 52.7589 58.9126 52.8475 58.9126H53.3891L49.3048 63.0723C49.2197 63.1601 49.1481 63.2277 49.0834 63.2749C49.0187 63.3222 48.9471 63.3627 48.8688 63.3931C48.9608 63.4201 49.0459 63.4606 49.1209 63.5147C49.1958 63.5687 49.2708 63.6396 49.3457 63.7274L53.648 68.1809H53.0996C52.9838 68.1809 52.902 68.1674 52.8509 68.137C52.7998 68.11 52.7521 68.0627 52.701 68.002L48.7496 63.9941C48.7019 63.9468 48.6542 63.9029 48.6133 63.8692C48.5724 63.8354 48.5247 63.805 48.4737 63.7814C48.4226 63.7578 48.3646 63.7409 48.2965 63.7274C48.2284 63.7172 48.1398 63.7105 48.0342 63.7105H47.4313V68.1775H46.75V58.9092H47.4313V63.1871L47.4381 63.1939Z" fill="white"/>
<path d="M67.3555 58.9194V59.4765H62.4332V63.221H66.5312V63.7646H62.4332V67.6272H67.3692L67.3555 68.1844H61.752V58.916H67.3555V58.9194Z" fill="white"/>
<path d="M76.7062 63.9942V68.1844H76.0249V58.916H78.4162C79.4892 58.916 80.2966 59.122 80.8314 59.5339C81.3662 59.9458 81.6353 60.5536 81.6353 61.3504C81.6353 61.705 81.574 62.0257 81.4479 62.3195C81.3219 62.6132 81.1448 62.8698 80.9131 63.0893C80.6815 63.3088 80.4022 63.4911 80.0752 63.6329C79.7481 63.7747 79.3802 63.8693 78.9749 63.9098C79.0805 63.9739 79.1759 64.0617 79.2576 64.1731L82.4767 68.181H81.8942C81.8192 68.181 81.7579 68.1675 81.7068 68.1438C81.6557 68.1202 81.608 68.0763 81.5638 68.0088L78.5627 64.2508C78.5286 64.2035 78.4912 64.1596 78.4537 64.1259C78.4162 64.0921 78.3753 64.0651 78.3277 64.0448C78.28 64.0246 78.2255 64.0111 78.1641 64.0009C78.0994 63.9908 78.0211 63.9874 77.9291 63.9874H76.7062V63.9942ZM76.7062 63.4979H78.3242C78.7364 63.4979 79.1077 63.4472 79.4381 63.3493C79.7652 63.2514 80.0445 63.1096 80.2727 62.9272C80.4975 62.7449 80.6713 62.5221 80.7905 62.2655C80.9097 62.0088 80.9676 61.7185 80.9676 61.3943C80.9676 60.7359 80.7496 60.2463 80.317 59.9289C79.8844 59.6116 79.2508 59.4495 78.4162 59.4495H76.7062V63.4979Z" fill="white"/>
<path d="M95.1929 60.0435C95.152 60.1178 95.0975 60.1549 95.0226 60.1549C94.9647 60.1549 94.8931 60.1144 94.8011 60.0334C94.7092 59.9523 94.5899 59.8645 94.4332 59.7632C94.28 59.6653 94.0858 59.5742 93.8542 59.4931C93.6225 59.4087 93.3364 59.3682 92.9991 59.3682C92.6619 59.3682 92.3621 59.4155 92.1033 59.5134C91.8444 59.6113 91.6298 59.7396 91.456 59.905C91.2823 60.0705 91.1495 60.263 91.0609 60.4824C90.9689 60.7019 90.9246 60.9315 90.9246 61.1712C90.9246 61.4852 90.9928 61.7452 91.1256 61.9512C91.2585 62.1571 91.4356 62.3293 91.657 62.4745C91.8784 62.6197 92.1271 62.7413 92.4064 62.8392C92.6857 62.9371 92.9719 63.035 93.2682 63.1296C93.5646 63.2241 93.8507 63.3321 94.1301 63.4469C94.4094 63.5617 94.6581 63.7069 94.8795 63.8825C95.1009 64.0581 95.278 64.2708 95.4109 64.5274C95.5437 64.784 95.6119 65.1014 95.6119 65.4796C95.6119 65.8577 95.5437 66.2325 95.4109 66.5769C95.278 66.9179 95.0805 67.2184 94.825 67.4717C94.5695 67.7249 94.2561 67.9241 93.8882 68.0727C93.5169 68.2179 93.0945 68.2921 92.621 68.2921C92.0045 68.2921 91.4731 68.1841 91.0302 67.968C90.584 67.7519 90.1956 67.4548 89.8618 67.08L90.0458 66.793C90.1003 66.7288 90.1616 66.6951 90.2297 66.6951C90.2706 66.6951 90.3183 66.7221 90.383 66.7727C90.4443 66.8268 90.5193 66.8909 90.6078 66.9652C90.6964 67.0429 90.802 67.1239 90.9246 67.2151C91.0473 67.3028 91.1903 67.3873 91.3538 67.4649C91.5173 67.5426 91.7047 67.6067 91.9159 67.6574C92.1271 67.7114 92.369 67.735 92.6347 67.735C93.006 67.735 93.3364 67.681 93.6259 67.5696C93.9155 67.4582 94.1607 67.3062 94.3617 67.1138C94.5627 66.9213 94.716 66.6951 94.8216 66.4283C94.9272 66.165 94.9817 65.8814 94.9817 65.5809C94.9817 65.2533 94.9136 64.9832 94.7807 64.7705C94.6479 64.5578 94.4707 64.3822 94.2493 64.2404C94.0279 64.0986 93.7792 63.9804 93.4999 63.8825C93.2206 63.7846 92.9344 63.6934 92.6381 63.6023C92.3417 63.5111 92.0556 63.4064 91.7762 63.295C91.4969 63.1802 91.2482 63.035 91.0268 62.8594C90.8054 62.6839 90.6283 62.461 90.4954 62.1977C90.3626 61.9343 90.2944 61.6034 90.2944 61.205C90.2944 60.8943 90.3523 60.5972 90.4716 60.3068C90.5908 60.0198 90.7645 59.7632 90.9928 59.5438C91.221 59.3243 91.5037 59.1453 91.841 59.0137C92.1782 58.882 92.5631 58.8145 92.9923 58.8145C93.476 58.8145 93.9121 58.8921 94.297 59.044C94.6819 59.196 95.0328 59.429 95.3496 59.7464L95.1895 60.0469L95.1929 60.0435Z" fill="white"/>
<path d="M95.6525 23.1865H49.9995V24.1387H95.6525V23.1865Z" fill="white"/>
<path d="M27.7624 23.1865H0V24.1387H27.7624V23.1865Z" fill="white"/>
<path d="M48.6883 8.07637C48.6509 8.07637 46.9545 6.51983 46.7875 6.11803C46.6206 5.71286 46.9953 5.19288 46.9953 5.19288L46.5559 4.76745L49.448 3.78153C49.448 3.78153 50.0271 3.79166 50.1872 3.75114C50.3507 3.70725 50.8344 3.38648 51.2908 3.16364C51.7439 2.94417 52.8135 2.5525 52.8135 2.5525L53.0247 2.22499H53.1814L53.2223 2.01565C53.2223 2.01565 53.1235 2.02577 53.0826 1.83669C52.9838 1.45178 53.1201 0.0640586 54.4861 -9.38678e-05C55.8555 -0.0642464 55.8691 1.55307 55.8691 1.55307C55.8691 1.55307 56.2336 1.63411 56.3971 1.72189C56.5606 1.80631 56.5265 1.83669 56.438 1.88734C56.3017 1.95149 55.6715 1.93123 55.6715 1.93123C55.6715 1.93123 55.7839 2.16421 55.7737 2.20135C55.7635 2.23849 55.5898 2.29589 55.5898 2.29589V2.52549L55.4262 2.60315C55.4262 2.60315 55.5387 2.67405 55.5421 2.71795C55.5421 2.76522 55.4603 2.80236 55.4603 2.80236C55.4603 2.80236 55.4501 2.97456 55.416 3.0252C55.3615 3.10624 54.7211 3.1265 54.7211 3.1265L54.3294 3.90308C54.3294 3.90308 54.4282 4.26774 54.7007 4.41292C54.8437 4.49396 55.1674 4.66953 55.4467 4.8181H55.4773C57.1942 4.21034 59.221 3.58569 59.8955 3.40337C61.04 3.0826 62.699 3.67686 63.0362 3.58569C63.3734 3.49791 64.2489 3.56881 64.2489 3.56881L65.3901 2.79898L65.2606 3.26155L65.8874 3.17039C65.8874 3.17039 64.6577 4.04489 64.7939 4.28124C64.9336 4.51759 65.2776 5.50014 65.5331 5.98972C65.792 6.48606 66.6096 9.42695 66.5789 9.71395C66.5482 10.0043 66.1429 10.6323 66.0747 10.6796C66.0032 10.7303 65.7273 10.791 65.5399 10.7505C65.3526 10.71 64.845 10.3555 64.8246 10.3217C64.8076 10.2846 64.8246 9.98406 64.7871 9.92329C64.736 9.83212 64.4124 9.03866 63.4518 8.63348C62.4878 8.22493 62.1097 7.28628 61.9291 7.18836C61.7452 7.09045 61.0128 6.8676 60.5529 7.10395C60.0896 7.33693 58.8122 9.07917 58.8122 9.07917C58.8122 9.07917 58.7782 9.61941 58.7134 9.87264C58.6283 10.2035 58.458 11.2536 58.5738 11.2401C58.6896 11.2333 60.168 11.1185 60.512 11.1591C60.7743 11.1895 60.9821 11.3684 61.0673 11.4967C61.1354 11.598 61.3296 12.2665 61.1865 12.4117C61.0332 12.5772 59.5344 15.0521 59.4186 15.1196C59.3028 15.1905 56.9046 15.2682 56.8501 15.2615C56.7956 15.2547 56.4345 15.356 56.4107 14.9002C56.3869 14.4444 57.3849 13.9514 57.5961 13.9716C57.8107 13.9919 58.0356 14.2958 58.3183 14.2688C58.6044 14.2418 59.8887 12.5367 59.732 12.4961C59.5753 12.4522 58.3456 13.3301 58.2025 13.4213C58.056 13.5091 57.8857 13.4112 57.5655 13.6137C57.2419 13.8163 56.2404 14.3262 56.2404 14.3262L55.3649 14.8124C55.3649 14.8124 54.4486 15.2952 53.9887 15.464C53.5289 15.6396 52.3605 16.1056 51.1784 16.2474C50.3881 16.3453 46.1267 16.2204 45.7043 16.2406C45.2785 16.2575 44.7777 16.4432 44.6483 16.8923C44.5189 17.3447 43.8921 19.5225 43.5174 19.8433C43.1427 20.1641 40.6764 22.2271 40.4107 22.4837C40.145 22.7369 39.3343 23.5169 39.215 23.9119C39.0992 24.3036 39.5216 27.1128 39.5216 27.3255C39.5216 27.5382 38.8097 28.9597 38.7041 29.0846C38.5951 29.2096 37.597 29.9355 37.5289 29.9186C37.4607 29.9051 37.3211 28.6018 37.3415 28.5444C37.3619 28.4836 38.0977 27.994 38.033 27.9062C37.9683 27.8185 37.6276 27.9062 38.2101 27.3323C38.7961 26.7684 37.6345 22.46 37.614 22.2507C37.597 22.0414 38.7245 21.3661 39.2355 21.0318C39.7464 20.6975 39.8997 19.8804 39.8078 19.5462C39.7226 19.2085 38.6394 17.3819 38.3634 16.4871C38.0841 15.5991 38.9221 13.6273 38.9221 13.6273C38.9221 13.6273 38.7245 13.5665 38.5133 13.5867C38.3021 13.6036 37.4812 14.0628 36.9906 14.8158C36.5035 15.5687 36.9123 17.4832 36.9123 17.4832C36.9123 17.4832 37.1576 18.9924 37.1201 19.2997C37.086 19.6103 37.0281 19.7488 36.9191 19.9851C36.8169 20.2147 36.7386 20.3194 36.6738 20.3734C36.6568 17.9694 36.1322 16.9767 36.139 17.024C36.1629 17.2704 36.5785 19.4212 36.4763 20.4409C36.3434 21.7611 34.9298 22.2541 35.0047 22.119C35.3045 21.5855 35.4101 20.9001 35.4101 20.9001C35.4101 20.9001 35.4203 20.8326 35.3964 20.8866C35.3249 21.0487 35.2431 21.2006 35.141 21.3526C33.9623 23.0172 31.7516 21.4404 32.392 21.4539C33.029 21.4741 33.7988 20.3903 34.0611 19.7488C34.2791 19.2322 34.2791 18.9654 34.0509 17.7634C33.8227 16.585 33.918 16.136 34.2893 15.1804C34.6641 14.2283 35.9551 13.4213 36.7556 13.114C37.5561 12.8135 39.8963 12.6717 39.8963 12.6717C39.8963 12.6717 40.9557 12.0606 41.3611 11.8681C41.7665 11.679 42.4648 11.517 42.9383 11.4359C43.4118 11.3549 46.1233 10.4331 46.1233 10.4331C46.1233 10.4331 45.9427 10.2002 45.8508 9.9503C45.7724 9.74096 45.7418 9.26826 45.7418 9.26826C45.7418 9.26826 45.4454 8.95087 45.3057 8.92386C45.1695 8.9036 45.2206 8.62673 45.4931 8.66049C45.7656 8.69426 47.6017 8.73478 48.0445 8.53894C48.1705 8.48492 48.3852 8.34649 48.6304 8.17091C48.6543 8.1574 48.6781 8.14052 48.702 8.12364L48.6951 8.08988L48.6883 8.07637Z" fill="#8F6D5F"/>
</g>
<defs>
<clipPath id="clip0_4680_4098">
<rect width="96" height="68.2887" fill="white"/>
</clipPath>
</defs>
</svg>
