<svg width="36" height="36" viewBox="0 0 36 36" fill="none" xmlns="http://www.w3.org/2000/svg">
<path d="M4.5 7.5L16.1582 16.5675C17.2415 17.4101 18.7585 17.4101 19.8418 16.5675L31.5 7.5M7.8 30H28.2C29.8802 30 30.7202 30 31.362 29.673C31.9265 29.3854 32.3854 28.9265 32.673 28.362C33 27.7202 33 26.8802 33 25.2V10.8C33 9.11984 33 8.27976 32.673 7.63803C32.3854 7.07354 31.9265 6.6146 31.362 6.32698C30.7202 6 29.8802 6 28.2 6H7.8C6.11984 6 5.27976 6 4.63803 6.32698C4.07354 6.6146 3.6146 7.07354 3.32698 7.63803C3 8.27976 3 9.11984 3 10.8V25.2C3 26.8802 3 27.7202 3.32698 28.362C3.6146 28.9265 4.07354 29.3854 4.63803 29.673C5.27976 30 6.11984 30 7.8 30Z" stroke="#8F6D5F" stroke-width="2"/>
</svg>
