<svg width="24" height="24" viewBox="0 0 24 24" fill="none" xmlns="http://www.w3.org/2000/svg">
<path d="M16.4167 3H7.58333C7.26117 3 7 3.26117 7 3.58333C7 5.19416 5.69416 6.5 4.08333 6.5H3.66667C3.29848 6.5 3 6.79848 3 7.16667V8.02527C3 13.5645 6.00313 18.6684 10.8453 21.3585L11.2236 21.5686C11.7064 21.8369 12.2936 21.8369 12.7764 21.5686L13.1547 21.3585C17.9969 18.6684 21 13.5645 21 8.02527V7.16667C21 6.79848 20.7015 6.5 20.3333 6.5H19.9167C18.3058 6.5 17 5.19416 17 3.58333C17 3.26117 16.7388 3 16.4167 3Z" stroke="#9E9E9E" stroke-width="2"/>
</svg>
