<svg width="48" height="48" viewBox="0 0 48 48" fill="none" xmlns="http://www.w3.org/2000/svg">
<path d="M22 10H26M24 34C27.3137 34 30 31.3137 30 28C30 24.6863 27.3137 22 24 22C20.6863 22 18 24.6863 18 28C18 31.3137 20.6863 34 24 34ZM24 34C29.5228 34 34 38.4772 34 44M24 34C18.4772 34 14 38.4772 14 44M18.4 44H29.6C31.8402 44 32.9603 44 33.816 43.564C34.5686 43.1805 35.1805 42.5686 35.564 41.816C36 40.9603 36 39.8402 36 37.6V10.4C36 8.15979 36 7.03968 35.564 6.18404C35.1805 5.43139 34.5686 4.81947 33.816 4.43597C32.9603 4 31.8402 4 29.6 4H18.4C16.1598 4 15.0397 4 14.184 4.43597C13.4314 4.81947 12.8195 5.43139 12.436 6.18404C12 7.03968 12 8.15979 12 10.4V37.6C12 39.8402 12 40.9603 12.436 41.816C12.8195 42.5686 13.4314 43.1805 14.184 43.564C15.0397 44 16.1598 44 18.4 44Z" stroke="#8F6D5F" stroke-width="2" stroke-linecap="round"/>
</svg>
